<svg viewBox="0 0 300 300">
<path style="fill:rgb(19,51,255);fill-rule:evenodd;stroke:none;opacity:0.476611"
d="M 300,68.3162 300,0 156.453,162.926 Z"/>
<path style="fill:rgb(112,0,86);fill-rule:evenodd;stroke:none;opacity:0.226873"
d="M 40.1863,170.626 34.8637,54.5899 50.4711,300 Z"/>
<path style="fill:rgb(18,15,255);fill-rule:evenodd;stroke:none;opacity:0"
d="M 263.165,90.6531 198.731,196.892 127.172,124.475 Z"/>
<path style="fill:rgb(37,0,63);fill-rule:evenodd;stroke:none;opacity:0.339124"
d="M 58.6127,148.347 0,235.088 171.746,254.838 Z"/>
<path style="fill:rgb(255,216,94);fill-rule:evenodd;stroke:none;opacity:0.363067"
d="M 162.396,269.456 27.6178,274.753 0,216.207 Z"/>
<path style="fill:rgb(193,249,157);fill-rule:evenodd;stroke:none;opacity:0.108997"
d="M 129.358,207.78 0,0 101.358,158.636 Z"/>
<path style="fill:rgb(71,69,22);fill-rule:evenodd;stroke:none;opacity:0.501696"
d="M 204.514,120.47 300,109.249 300,0 Z"/>
<path style="fill:rgb(179,149,174);fill-rule:evenodd;stroke:none;opacity:0.341685"
d="M 102.59,300 61.9038,219.17 0,152.316 Z"/>
<path style="fill:rgb(144,255,189);fill-rule:evenodd;stroke:none;opacity:0"
d="M 17.5192,209.827 251.966,0 82.2097,169.791 Z"/>
<path style="fill:rgb(217,91,156);fill-rule:evenodd;stroke:none;opacity:0.988249"
d="M 300,0 129.157,0 77.3205,0 Z"/>
<path style="fill:rgb(99,83,97);fill-rule:evenodd;stroke:none;opacity:0.408606"
d="M -62.0067,324.91 0,216.988 209.79,278.444 Z"/>
<path style="fill:rgb(68,61,0);fill-rule:evenodd;stroke:none;opacity:0.483082"
d="M 0,184.929 249.038,125.258 28.9791,226.831 Z"/>
<path style="fill:rgb(144,177,148);fill-rule:evenodd;stroke:none;opacity:0"
d="M 146.578,0 297.522,183.583 300,0 Z"/>
<path style="fill:rgb(20,214,240);fill-rule:evenodd;stroke:none;opacity:0.937061"
d="M 300,185.903 300,80.6381 300,265.211 Z"/>
<path style="fill:rgb(187,137,255);fill-rule:evenodd;stroke:none;opacity:0.455819"
d="M 40.5932,185.164 101.14,163.749 115.912,157.573 Z"/>
<path style="fill:rgb(255,219,235);fill-rule:evenodd;stroke:none;opacity:0.561665"
d="M 300,50.9979 109.232,137.322 300,131.884 Z"/>
<path style="fill:rgb(224,172,255);fill-rule:evenodd;stroke:none;opacity:0.449213"
d="M 239.287,268.352 139.884,278.83 234.387,241.686 Z"/>
<path style="fill:rgb(192,160,22);fill-rule:evenodd;stroke:none;opacity:0.48733"
d="M -58.8688,133.701 0,0 174.926,0 Z"/>
<path style="fill:rgb(255,25,21);fill-rule:evenodd;stroke:none;opacity:0.5165"
d="M 141.274,216.65 68.8709,265.247 0,257.663 Z"/>
<path style="fill:rgb(0,80,128);fill-rule:evenodd;stroke:none;opacity:0.372824"
d="M 254.22,343.444 300,268.389 117.21,222.292 Z"/>
<path style="fill:rgb(164,174,0);fill-rule:evenodd;stroke:none;opacity:0"
d="M 125.297,0 300,60.3156 276.109,284.392 Z"/>
<path style="fill:rgb(0,255,49);fill-rule:evenodd;stroke:none;opacity:0.227154"
d="M 271.957,22.3206 131.153,235.041 300,30.1148 Z"/>
<path style="fill:rgb(255,155,71);fill-rule:evenodd;stroke:none;opacity:0.344951"
d="M 351.475,249.357 0,233.976 109.363,285.164 Z"/>
<path style="fill:rgb(255,98,21);fill-rule:evenodd;stroke:none;opacity:1"
d="M 219.029,265.34 178.777,128.529 173.919,235.851 Z"/>
<path style="fill:rgb(60,200,22);fill-rule:evenodd;stroke:none;opacity:0.0609596"
d="M 263.876,0 168.962,0 32.4692,35.6851 Z"/>
<path style="fill:rgb(231,255,255);fill-rule:evenodd;stroke:none;opacity:0.522499"
d="M 41.4151,213.547 49.8157,44.433 162.276,52.1773 Z"/>
<path style="fill:rgb(226,130,223);fill-rule:evenodd;stroke:none;opacity:0"
d="M 300,83.8455 300,0 40.3337,300 Z"/>
<path style="fill:rgb(228,165,66);fill-rule:evenodd;stroke:none;opacity:0.335899"
d="M 0,167.932 135.832,294.282 0,244.489 Z"/>
<path style="fill:rgb(9,0,136);fill-rule:evenodd;stroke:none;opacity:0.333314"
d="M 91.875,300 0,220.712 0,121.817 Z"/>
<path style="fill:rgb(151,159,201);fill-rule:evenodd;stroke:none;opacity:0.126955"
d="M 273.998,85.243 78.9407,284.351 252.113,0 Z"/>
<path style="fill:rgb(255,193,75);fill-rule:evenodd;stroke:none;opacity:0.924529"
d="M 254.823,145.045 338.442,247.963 269.564,250.703 Z"/>
<path style="fill:rgb(0,0,41);fill-rule:evenodd;stroke:none;opacity:0.648785"
d="M 31.0586,257.769 43.4129,300 178.439,155.736 Z"/>
<path style="fill:rgb(208,255,244);fill-rule:evenodd;stroke:none;opacity:0"
d="M 259.31,218.636 0,187.28 257.745,165.599 Z"/>
<path style="fill:rgb(242,36,188);fill-rule:evenodd;stroke:none;opacity:0"
d="M 0,33.4215 134.432,208.558 72.3309,120.159 Z"/>
<path style="fill:rgb(59,119,55);fill-rule:evenodd;stroke:none;opacity:0"
d="M 0,191.576 300,157.977 99.5729,300 Z"/>
<path style="fill:rgb(218,236,255);fill-rule:evenodd;stroke:none;opacity:0.85689"
d="M 163.261,236.437 242.595,142.81 255.383,120.059 Z"/>
<path style="fill:rgb(149,120,255);fill-rule:evenodd;stroke:none;opacity:0.386629"
d="M 188.971,0 300,129.06 300,0 Z"/>
<path style="fill:rgb(255,254,102);fill-rule:evenodd;stroke:none;opacity:0.254368"
d="M 0,300 25.6992,361.698 9.54269,233.331 Z"/>
<path style="fill:rgb(190,135,0);fill-rule:evenodd;stroke:none;opacity:0.211158"
d="M 199.913,140.691 239.621,300 123.792,284.999 Z"/>
<path style="fill:rgb(35,0,215);fill-rule:evenodd;stroke:none;opacity:0"
d="M 28.206,169.112 300,139.322 118.284,153.712 Z"/>
<path style="fill:rgb(142,110,26);fill-rule:evenodd;stroke:none;opacity:0.30812"
d="M 210.296,-93.3033 17.0507,293.908 0,64.9065 Z"/>
<path style="fill:rgb(255,155,0);fill-rule:evenodd;stroke:none;opacity:0"
d="M 223.344,300 123.581,275.596 160.587,0 Z"/>
<path style="fill:rgb(92,159,24);fill-rule:evenodd;stroke:none;opacity:0.241296"
d="M 43.4884,225.845 79.8219,145.472 129.382,93.6071 Z"/>
<path style="fill:rgb(0,75,0);fill-rule:evenodd;stroke:none;opacity:0"
d="M 200.635,58.7479 56.6609,258.88 0,50.9706 Z"/>
<path style="fill:rgb(188,142,108);fill-rule:evenodd;stroke:none;opacity:0.312724"
d="M 300,4.32369 300,226.288 176.366,8.84338 Z"/>
<path style="fill:rgb(209,210,254);fill-rule:evenodd;stroke:none;opacity:0.0803512"
d="M 300,300 300,45.5239 230.153,0 Z"/>
<path style="fill:rgb(0,255,32);fill-rule:evenodd;stroke:none;opacity:0"
d="M 214.904,125.746 0,300 300,111.348 Z"/>
<path style="fill:rgb(248,208,215);fill-rule:evenodd;stroke:none;opacity:0.721609"
d="M 100.276,222.469 87.3822,320.106 229.177,222.201 Z"/>
<path style="fill:rgb(177,196,142);fill-rule:evenodd;stroke:none;opacity:0.626977"
d="M 121.281,-71.3397 147.438,90.0823 25.4488,132.593 Z"/>
<path style="fill:rgb(255,168,57);fill-rule:evenodd;stroke:none;opacity:0.277789"
d="M 300,237.841 178.222,102.37 300,300 Z"/>
<path style="fill:rgb(0,43,67);fill-rule:evenodd;stroke:none;opacity:0"
d="M 179.561,89.6025 134.552,208.65 147.554,300 Z"/>
<path style="fill:rgb(144,39,0);fill-rule:evenodd;stroke:none;opacity:1"
d="M 63.3188,0 214.1,0 132.142,31.265 Z"/>
<path style="fill:rgb(165,0,182);fill-rule:evenodd;stroke:none;opacity:1"
d="M 113.947,0 0,0 227.321,0 Z"/>
<path style="fill:rgb(255,172,89);fill-rule:evenodd;stroke:none;opacity:0"
d="M 97.8888,296.716 236.938,300 300,50.2182 Z"/>
<path style="fill:rgb(255,116,152);fill-rule:evenodd;stroke:none;opacity:0.364012"
d="M 184.664,89.2928 15.3222,376.448 194.532,262.31 Z"/>
<path style="fill:rgb(163,141,15);fill-rule:evenodd;stroke:none;opacity:0.356013"
d="M 125.623,300 140.38,152.46 54.8613,300 Z"/>
<path style="fill:rgb(69,27,0);fill-rule:evenodd;stroke:none;opacity:0.163318"
d="M 300,0 300,116.955 118.892,138.598 Z"/>
<path style="fill:rgb(171,248,255);fill-rule:evenodd;stroke:none;opacity:0.364632"
d="M -87.72,36.224 109.241,146.444 177.828,0 Z"/>
<path style="fill:rgb(0,14,6);fill-rule:evenodd;stroke:none;opacity:0.382202"
d="M 295.985,199.871 112.031,207.15 247.245,0 Z"/>
<path style="fill:rgb(133,112,19);fill-rule:evenodd;stroke:none;opacity:0"
d="M 81.5631,224.876 164.429,300 56.9159,211.147 Z"/>
<path style="fill:rgb(255,255,0);fill-rule:evenodd;stroke:none;opacity:0.222385"
d="M 0,239.743 65.759,248.406 0,300 Z"/>
<path style="fill:rgb(169,238,121);fill-rule:evenodd;stroke:none;opacity:0"
d="M 152.401,300 271.605,120.202 240.625,141.931 Z"/>
<path style="fill:rgb(255,46,0);fill-rule:evenodd;stroke:none;opacity:0.399708"
d="M 300,43.8703 85.4518,170.315 156.067,167.283 Z"/>
<path style="fill:rgb(234,201,154);fill-rule:evenodd;stroke:none;opacity:0.558839"
d="M 43.822,50.6412 150.928,187.754 -13.7504,58.486 Z"/>
<path style="fill:rgb(0,26,80);fill-rule:evenodd;stroke:none;opacity:1"
d="M 91.1065,51.7127 68.2032,81.857 123.16,129.137 Z"/>
<path style="fill:rgb(88,178,32);fill-rule:evenodd;stroke:none;opacity:0"
d="M 125.541,193.127 300,0 205.359,49.2758 Z"/>
<path style="fill:rgb(74,41,32);fill-rule:evenodd;stroke:none;opacity:0.797709"
d="M 300,164.445 181.88,338.086 300,182.109 Z"/>
<path style="fill:rgb(63,103,0);fill-rule:evenodd;stroke:none;opacity:0.345074"
d="M 242.109,176.902 67.1053,390.298 90.2741,300 Z"/>
<path style="fill:rgb(39,72,4);fill-rule:evenodd;stroke:none;opacity:0.635488"
d="M 290.231,225.283 67.1805,87.7183 235.282,114.02 Z"/>
<path style="fill:rgb(144,232,93);fill-rule:evenodd;stroke:none;opacity:0"
d="M 300,204.111 257.739,33.9238 289.776,300 Z"/>
<path style="fill:rgb(255,127,88);fill-rule:evenodd;stroke:none;opacity:1"
d="M 300,89.4717 300,215.338 300,177.622 Z"/>
<path style="fill:rgb(188,190,50);fill-rule:evenodd;stroke:none;opacity:0.191206"
d="M 138.734,384.277 -6.44478,108.795 83.5557,200.862 Z"/>
<path style="fill:rgb(0,0,9);fill-rule:evenodd;stroke:none;opacity:0.676752"
d="M 57.7252,186.93 222.458,87.7042 213.15,208.254 Z"/>
<path style="fill:rgb(141,169,98);fill-rule:evenodd;stroke:none;opacity:0.734033"
d="M 166.994,79.2725 91.2625,-27.5832 -42.9395,6.49586 Z"/>
<path style="fill:rgb(63,132,99);fill-rule:evenodd;stroke:none;opacity:0"
d="M 221.067,222.538 218.246,0 0,300 Z"/>
<path style="fill:rgb(77,255,223);fill-rule:evenodd;stroke:none;opacity:0.708466"
d="M 91.1073,-57.593 244.619,26.0796 251.812,94.9849 Z"/>
<path style="fill:rgb(207,80,40);fill-rule:evenodd;stroke:none;opacity:0.436695"
d="M -33.3367,15.5208 130.697,180.678 167.954,44.3536 Z"/>
<path style="fill:rgb(255,255,120);fill-rule:evenodd;stroke:none;opacity:0.2"
d="M 62.3735,112.228 -44.3686,8.60657 180.932,59.0209 Z"/>
<path style="fill:rgb(214,0,85);fill-rule:evenodd;stroke:none;opacity:0.0464429"
d="M 198.518,300 300,154.158 145.28,300 Z"/>
<path style="fill:rgb(178,144,107);fill-rule:evenodd;stroke:none;opacity:0.410164"
d="M 224.479,143.115 244.274,184.485 242.223,57.6259 Z"/>
<path style="fill:rgb(144,146,185);fill-rule:evenodd;stroke:none;opacity:0.480839"
d="M 226.844,202.594 406.389,9.51768 300,207.005 Z"/>
<path style="fill:rgb(164,0,52);fill-rule:evenodd;stroke:none;opacity:0.178537"
d="M 300,119.884 195.062,300 300,294.56 Z"/>
<path style="fill:rgb(241,0,0);fill-rule:evenodd;stroke:none;opacity:0.182742"
d="M 126.629,160.826 -85.2951,70.631 -80.0944,0 Z"/>
<path style="fill:rgb(58,109,67);fill-rule:evenodd;stroke:none;opacity:0"
d="M 297.766,283.569 274.552,153.141 0,0 Z"/>
<path style="fill:rgb(0,216,97);fill-rule:evenodd;stroke:none;opacity:0.527535"
d="M 201.075,255.809 227.883,237.564 138.556,300 Z"/>
<path style="fill:rgb(216,203,0);fill-rule:evenodd;stroke:none;opacity:0.376855"
d="M 201.6,331.355 150.406,53.538 176.713,66.156 Z"/>
<path style="fill:rgb(26,0,2);fill-rule:evenodd;stroke:none;opacity:0.622288"
d="M 100.654,33.5023 47.9256,122.261 214.834,-57.3518 Z"/>
<path style="fill:rgb(255,255,0);fill-rule:evenodd;stroke:none;opacity:0"
d="M 0,3.00518 300,233.131 300,300 Z"/>
<path style="fill:rgb(255,97,236);fill-rule:evenodd;stroke:none;opacity:0"
d="M 0,91.442 300,252.605 300,300 Z"/>
<path style="fill:rgb(118,209,160);fill-rule:evenodd;stroke:none;opacity:0.880964"
d="M 247.773,164.104 254.906,0 174.474,-26.3241 Z"/>
<path style="fill:rgb(255,188,125);fill-rule:evenodd;stroke:none;opacity:0.300045"
d="M 234.219,103.373 122.98,184.564 60.7024,33.941 Z"/>
<path style="fill:rgb(104,114,0);fill-rule:evenodd;stroke:none;opacity:0"
d="M 192.368,150.782 300,157.015 32.2795,300 Z"/>
<path style="fill:rgb(211,192,109);fill-rule:evenodd;stroke:none;opacity:0.350199"
d="M 66.2913,325.747 131.578,226.133 273.425,114.929 Z"/>
<path style="fill:rgb(40,0,23);fill-rule:evenodd;stroke:none;opacity:0.548464"
d="M 186.188,357.952 292.27,9.66926 166.787,121.168 Z"/>
<path style="fill:rgb(255,199,76);fill-rule:evenodd;stroke:none;opacity:0"
d="M 14.788,24.2426 262.048,274.503 186.757,207.437 Z"/>
<path style="fill:rgb(162,233,106);fill-rule:evenodd;stroke:none;opacity:0.336477"
d="M -63.7023,226.961 56.5924,-58.0381 177.145,111.091 Z"/>
<path style="fill:rgb(117,138,88);fill-rule:evenodd;stroke:none;opacity:0.186489"
d="M 0,0 0,256.507 113.801,0 Z"/>
<path style="fill:rgb(58,0,15);fill-rule:evenodd;stroke:none;opacity:0.805683"
d="M 94.2381,173.899 47.5748,164.817 91.5755,46.2046 Z"/>
<path style="fill:rgb(131,50,89);fill-rule:evenodd;stroke:none;opacity:0.263521"
d="M 65.6776,-47.1668 259.216,100.271 21.2066,0 Z"/>
<path style="fill:rgb(0,0,0);fill-rule:evenodd;stroke:none;opacity:0.335612"
d="M 286.41,81.0728 198.52,296.239 160.514,27.1152 Z"/>
<path style="fill:rgb(24,89,72);fill-rule:evenodd;stroke:none;opacity:0.282385"
d="M 167.849,128.847 243.222,131.855 300,182.2 Z"/>
<path style="fill:rgb(172,37,116);fill-rule:evenodd;stroke:none;opacity:0.279765"
d="M 109.479,-44.3474 229.594,-69.3285 322.039,141.732 Z"/>
<path style="fill:rgb(48,116,151);fill-rule:evenodd;stroke:none;opacity:0.130534"
d="M 349.727,136.405 99.4186,0 300,0 Z"/>
<path style="fill:rgb(29,230,106);fill-rule:evenodd;stroke:none;opacity:0.0545598"
d="M 201.127,213.082 0,195.224 0,170.97 Z"/>
<path style="fill:rgb(44,255,180);fill-rule:evenodd;stroke:none;opacity:0.0809358"
d="M 300,85.4535 61.7811,300 238.068,105.758 Z"/>
<path style="fill:rgb(30,24,5);fill-rule:evenodd;stroke:none;opacity:0.441688"
d="M 134.042,348.598 19.1398,138.701 -73.3412,173.239 Z"/>
<path style="fill:rgb(77,113,88);fill-rule:evenodd;stroke:none;opacity:0.554343"
d="M 379.807,215.353 229.146,192.057 209.224,53.8274 Z"/>
<path style="fill:rgb(214,249,62);fill-rule:evenodd;stroke:none;opacity:0.200012"
d="M 88.9606,237.09 115.49,296.608 317.277,95.3666 Z"/>
<path style="fill:rgb(255,231,239);fill-rule:evenodd;stroke:none;opacity:0.331007"
d="M 125.961,259.647 172.407,236.301 157.077,356.868 Z"/>
<path style="fill:rgb(133,184,100);fill-rule:evenodd;stroke:none;opacity:0.334598"
d="M 0,183.33 141.018,135.149 -74.5819,333.96 Z"/>
<path style="fill:rgb(0,151,0);fill-rule:evenodd;stroke:none;opacity:0.122725"
d="M 300,125.749 114.911,0 41.0112,0 Z"/>
<path style="fill:rgb(170,191,205);fill-rule:evenodd;stroke:none;opacity:0.312721"
d="M 220.181,92.9201 183.594,9.10707 384.048,146.085 Z"/>
<path style="fill:rgb(255,219,77);fill-rule:evenodd;stroke:none;opacity:0.196739"
d="M 163.402,271.565 58.2186,72.8988 148.8,29.7308 Z"/>
<path style="fill:rgb(255,231,106);fill-rule:evenodd;stroke:none;opacity:0.769621"
d="M 131.377,121.654 165.222,105.158 147.495,168.981 Z"/>
<path style="fill:rgb(209,172,83);fill-rule:evenodd;stroke:none;opacity:0.674805"
d="M 105.463,134.993 94.7628,153.744 139.509,193.703 Z"/>
<path style="fill:rgb(44,213,110);fill-rule:evenodd;stroke:none;opacity:0"
d="M 0,180.896 131.743,0 166.559,146.192 Z"/>
<path style="fill:rgb(66,19,62);fill-rule:evenodd;stroke:none;opacity:0.346371"
d="M 95.8459,0 300,241.447 300,118.292 Z"/>
<path style="fill:rgb(36,0,15);fill-rule:evenodd;stroke:none;opacity:0.499621"
d="M 222.814,105.492 120.666,183.133 216.35,227.693 Z"/>
<path style="fill:rgb(147,123,144);fill-rule:evenodd;stroke:none;opacity:0.610163"
d="M 126.54,0 300,43.3049 300,99.3274 Z"/>
<path style="fill:rgb(192,123,156);fill-rule:evenodd;stroke:none;opacity:0"
d="M 106.536,283.511 265.671,74.5544 147.691,199.445 Z"/>
<path style="fill:rgb(0,0,100);fill-rule:evenodd;stroke:none;opacity:0"
d="M 300,83.8097 300,222.664 264.43,0 Z"/>
<path style="fill:rgb(139,255,255);fill-rule:evenodd;stroke:none;opacity:0"
d="M 221.676,283.531 116.03,0 0,300 Z"/>
<path style="fill:rgb(104,184,121);fill-rule:evenodd;stroke:none;opacity:0.732477"
d="M 233.843,-6.74586 100.497,32.4231 101.998,0 Z"/>
<path style="fill:rgb(103,224,120);fill-rule:evenodd;stroke:none;opacity:0.152429"
d="M 300,107.709 300,279.475 221.125,193.903 Z"/>
<path style="fill:rgb(42,122,0);fill-rule:evenodd;stroke:none;opacity:0.180359"
d="M 0,300 0,120.887 42.9093,105.568 Z"/>
<path style="fill:rgb(228,18,255);fill-rule:evenodd;stroke:none;opacity:0"
d="M 104.085,137.713 7.39413,181.404 209.201,228.194 Z"/>
<path style="fill:rgb(60,71,26);fill-rule:evenodd;stroke:none;opacity:0.322192"
d="M 300,109.071 300,347.053 170.384,255.699 Z"/>
<path style="fill:rgb(120,12,68);fill-rule:evenodd;stroke:none;opacity:0.215413"
d="M 137.295,130.357 19.5831,314.392 -130.332,82.6598 Z"/>
<path style="fill:rgb(30,41,0);fill-rule:evenodd;stroke:none;opacity:0.428937"
d="M 0,240.576 80.0259,240.104 -119.491,80.8652 Z"/>
<path style="fill:rgb(89,110,137);fill-rule:evenodd;stroke:none;opacity:0.144792"
d="M 0,221.896 104.401,35.3823 0,0 Z"/>
<path style="fill:rgb(211,170,55);fill-rule:evenodd;stroke:none;opacity:0.352547"
d="M 161.843,109.89 66.1508,108.281 191.319,286.354 Z"/>
<path style="fill:rgb(196,118,79);fill-rule:evenodd;stroke:none;opacity:0.252916"
d="M 0,142.569 0,300 78.3338,91.2933 Z"/>
<path style="fill:rgb(196,77,6);fill-rule:evenodd;stroke:none;opacity:0.237784"
d="M 122.465,-94.7385 70.0219,146.757 285.768,13.8019 Z"/>
<path style="fill:rgb(255,240,119);fill-rule:evenodd;stroke:none;opacity:0.254737"
d="M 140.007,195.162 158.118,300 111.208,215.237 Z"/>
<path style="fill:rgb(53,135,115);fill-rule:evenodd;stroke:none;opacity:0.253609"
d="M 263.133,54.8443 0,-105.55 300,0 Z"/>
<path style="fill:rgb(68,96,81);fill-rule:evenodd;stroke:none;opacity:0.250046"
d="M 41.7088,247.331 103.423,88.4212 0,186.304 Z"/>
<path style="fill:rgb(20,8,0);fill-rule:evenodd;stroke:none;opacity:0.261099"
d="M 278.111,-47.1193 110.34,36.3734 229.239,111.365 Z"/>
<path style="fill:rgb(116,96,63);fill-rule:evenodd;stroke:none;opacity:0.236892"
d="M 43.9763,82.6746 0,-40.7699 124.457,50.3124 Z"/>
<path style="fill:rgb(63,44,77);fill-rule:evenodd;stroke:none;opacity:0.476365"
d="M 406.008,227.409 300,300 233.974,300 Z"/>
<path style="fill:rgb(38,54,31);fill-rule:evenodd;stroke:none;opacity:0.471263"
d="M -62.9266,187.618 88.9543,82.2528 92.3363,182.895 Z"/>
<path style="fill:rgb(255,234,49);fill-rule:evenodd;stroke:none;opacity:0.27079"
d="M 227.715,253.35 147.797,342.511 84.1522,205.525 Z"/>
<path style="fill:rgb(1,108,210);fill-rule:evenodd;stroke:none;opacity:0"
d="M 39.0108,154.041 70.9431,120.073 210.643,69.5999 Z"/>
<path style="fill:rgb(255,166,46);fill-rule:evenodd;stroke:none;opacity:0.199966"
d="M 0,300 259.934,164.461 239.598,268.123 Z"/>
<path style="fill:rgb(123,165,53);fill-rule:evenodd;stroke:none;opacity:0.272292"
d="M 300,0 300,147.097 180.701,114.569 Z"/>
<path style="fill:rgb(108,47,40);fill-rule:evenodd;stroke:none;opacity:0.27194"
d="M 230.502,141.293 75.9997,251.963 137.251,79.3497 Z"/>
<path style="fill:rgb(209,242,91);fill-rule:evenodd;stroke:none;opacity:0.291177"
d="M 159.396,17.3236 300,133.414 300,-58.189 Z"/>
<path style="fill:rgb(27,201,51);fill-rule:evenodd;stroke:none;opacity:0"
d="M 264.028,235.163 117.204,218.816 280.969,156.088 Z"/>
<path style="fill:rgb(10,2,37);fill-rule:evenodd;stroke:none;opacity:0.34368"
d="M 170.502,0 191.744,342.455 300,285.129 Z"/>
<path style="fill:rgb(91,94,0);fill-rule:evenodd;stroke:none;opacity:0"
d="M 77.3898,215.215 150.371,125.943 279.26,160.912 Z"/>
<path style="fill:rgb(140,128,71);fill-rule:evenodd;stroke:none;opacity:0.313782"
d="M 300,229.056 256.605,212.955 220.272,267.81 Z"/>
</svg>
