<svg viewBox="0 0 340 255">
<rect width="340" height="255" style="fill:rgb(0,0,0);" />
<path style="fill:rgb(239,212,211);fill-rule:evenodd;stroke:none;opacity:0.464504"
d="M -68,181 408,198 160,283 Z"/>
<path style="fill:rgb(165,193,149);fill-rule:evenodd;stroke:none;opacity:0.935541"
d="M 389,154 215,270 251,120 Z"/>
<path style="fill:rgb(165,150,150);fill-rule:evenodd;stroke:none;opacity:0.447076"
d="M 109,162 -57,40 161,-15 Z"/>
<path style="fill:rgb(92,188,249);fill-rule:evenodd;stroke:none;opacity:0.623886"
d="M 278,-33 288,-25 248,233 Z"/>
<path style="fill:rgb(207,187,185);fill-rule:evenodd;stroke:none;opacity:0.396963"
d="M 340,96 7,139 308,-51 Z"/>
<path style="fill:rgb(209,221,227);fill-rule:evenodd;stroke:none;opacity:0.627361"
d="M 408,156 193,65 217,239 Z"/>
<path style="fill:rgb(159,215,0);fill-rule:evenodd;stroke:none;opacity:0.507441"
d="M 281,221 344,227 198,280 Z"/>
<path style="fill:rgb(238,236,236);fill-rule:evenodd;stroke:none;opacity:1"
d="M 386,-4 83,-20 298,143 Z"/>
<path style="fill:rgb(231,77,207);fill-rule:evenodd;stroke:none;opacity:0.33835"
d="M 311,29 229,61 311,21 Z"/>
<path style="fill:rgb(171,102,117);fill-rule:evenodd;stroke:none;opacity:0.349507"
d="M 153,-13 229,149 156,40 Z"/>
<path style="fill:rgb(251,255,255);fill-rule:evenodd;stroke:none;opacity:0.899786"
d="M 155,50 408,76 109,-51 Z"/>
<path style="fill:rgb(67,194,255);fill-rule:evenodd;stroke:none;opacity:0.466031"
d="M -68,141 31,291 -45,145 Z"/>
<path style="fill:rgb(138,158,97);fill-rule:evenodd;stroke:none;opacity:0.42466"
d="M 31,161 -32,-42 154,69 Z"/>
<path style="fill:rgb(249,249,245);fill-rule:evenodd;stroke:none;opacity:1"
d="M -7,12 135,263 -68,278 Z"/>
<path style="fill:rgb(255,255,251);fill-rule:evenodd;stroke:none;opacity:0.73484"
d="M -15,258 42,-29 151,84 Z"/>
<path style="fill:rgb(231,232,237);fill-rule:evenodd;stroke:none;opacity:1"
d="M 86,-33 131,256 -36,-4 Z"/>
<path style="fill:rgb(255,255,255);fill-rule:evenodd;stroke:none;opacity:0.476192"
d="M 9,-42 245,175 -68,228 Z"/>
<path style="fill:rgb(247,252,246);fill-rule:evenodd;stroke:none;opacity:1"
d="M 294,-51 215,306 408,252 Z"/>
<path style="fill:rgb(210,210,206);fill-rule:evenodd;stroke:none;opacity:0.710447"
d="M 109,121 167,61 124,306 Z"/>
<path style="fill:rgb(128,99,99);fill-rule:evenodd;stroke:none;opacity:0.513811"
d="M 243,290 276,73 114,126 Z"/>
</svg>
