<svg viewBox="0 0 300 300">
<path style="fill:rgb(54,19,208);fill-rule:evenodd;stroke:none;opacity:0.279537"
d="M [70, 11],11 7,132 [82, 58],[82, 58] Z"/>
<path style="fill:rgb(158,106,192);fill-rule:evenodd;stroke:none;opacity:0.346004"
d="M [148, 264],264 103,159 [93, 387],[93, 387] Z"/>
<path style="fill:rgb(233,99,77);fill-rule:evenodd;stroke:none;opacity:0.454009"
d="M [253, 73],73 300,143 [429, -6],[429, -6] Z"/>
<path style="fill:rgb(46,210,205);fill-rule:evenodd;stroke:none;opacity:0.502373"
d="M [35, 272],272 166,240 [-1, 284],[-1, 284] Z"/>
<path style="fill:rgb(3,168,56);fill-rule:evenodd;stroke:none;opacity:0.306855"
d="M [215, 168],168 13,63 [245, 10],[245, 10] Z"/>
<path style="fill:rgb(12,241,237);fill-rule:evenodd;stroke:none;opacity:0.206144"
d="M [-16, 95],95 98,66 [230, 273],[230, 273] Z"/>
<path style="fill:rgb(74,203,60);fill-rule:evenodd;stroke:none;opacity:0.2"
d="M [15, -41],-41 266,41 [-3, 229],[-3, 229] Z"/>
<path style="fill:rgb(123,167,104);fill-rule:evenodd;stroke:none;opacity:0.556752"
d="M [43, 51],51 129,156 [0, 263],[0, 263] Z"/>
<path style="fill:rgb(68,146,169);fill-rule:evenodd;stroke:none;opacity:0.2"
d="M [257, 24],24 16,106 [164, -69],[164, -69] Z"/>
<path style="fill:rgb(167,43,75);fill-rule:evenodd;stroke:none;opacity:0.388549"
d="M [165, 150],150 300,112 [300, -49],[300, -49] Z"/>
<path style="fill:rgb(109,152,230);fill-rule:evenodd;stroke:none;opacity:0.420452"
d="M [32, 78],78 22,0 [71, -52],[71, -52] Z"/>
<path style="fill:rgb(34,202,199);fill-rule:evenodd;stroke:none;opacity:0.338511"
d="M [116, 131],131 139,287 [256, 329],[256, 329] Z"/>
<path style="fill:rgb(30,217,125);fill-rule:evenodd;stroke:none;opacity:0.2"
d="M [76, 300],300 222,406 [126, 279],[126, 279] Z"/>
<path style="fill:rgb(163,245,188);fill-rule:evenodd;stroke:none;opacity:0.24195"
d="M [220, 326],326 60,280 [107, 145],[107, 145] Z"/>
<path style="fill:rgb(179,79,178);fill-rule:evenodd;stroke:none;opacity:0.2"
d="M [271, -67],-67 323,0 [141, 176],[141, 176] Z"/>
<path style="fill:rgb(76,59,14);fill-rule:evenodd;stroke:none;opacity:0.236413"
d="M [6, 121],121 44,120 [0, 193],[0, 193] Z"/>
<path style="fill:rgb(73,74,63);fill-rule:evenodd;stroke:none;opacity:0.285904"
d="M [268, 155],155 273,62 [362, 98],[362, 98] Z"/>
<path style="fill:rgb(126,184,15);fill-rule:evenodd;stroke:none;opacity:0.244033"
d="M [288, 75],75 295,172 [253, 53],[253, 53] Z"/>
<path style="fill:rgb(33,193,99);fill-rule:evenodd;stroke:none;opacity:0.182425"
d="M [360, 18],18 294,32 [217, 3],[217, 3] Z"/>
<path style="fill:rgb(12,52,219);fill-rule:evenodd;stroke:none;opacity:0.268276"
d="M [222, 41],41 102,110 [140, 22],[140, 22] Z"/>
<path style="fill:rgb(12,160,58);fill-rule:evenodd;stroke:none;opacity:0.436726"
d="M [238, 88],88 85,147 [303, 250],[303, 250] Z"/>
<path style="fill:rgb(221,100,240);fill-rule:evenodd;stroke:none;opacity:0.261042"
d="M [106, 342],342 179,174 [148, 254],[148, 254] Z"/>
<path style="fill:rgb(124,116,194);fill-rule:evenodd;stroke:none;opacity:0.285608"
d="M [273, 269],269 215,293 [300, 201],[300, 201] Z"/>
<path style="fill:rgb(30,157,230);fill-rule:evenodd;stroke:none;opacity:0.324692"
d="M [-134, 103],103 -130,-82 [156, 0],[156, 0] Z"/>
<path style="fill:rgb(165,199,136);fill-rule:evenodd;stroke:none;opacity:0.221385"
d="M [300, 179],179 245,64 [166, 156],[166, 156] Z"/>
<path style="fill:rgb(69,239,222);fill-rule:evenodd;stroke:none;opacity:0.323067"
d="M [-34, 166],166 8,88 [37, 154],[37, 154] Z"/>
<path style="fill:rgb(79,61,154);fill-rule:evenodd;stroke:none;opacity:0.332775"
d="M [254, 82],82 155,0 [181, 242],[181, 242] Z"/>
<path style="fill:rgb(203,182,50);fill-rule:evenodd;stroke:none;opacity:0.411809"
d="M [-69, 127],127 48,159 [0, -50],[0, -50] Z"/>
<path style="fill:rgb(29,148,242);fill-rule:evenodd;stroke:none;opacity:0.2"
d="M [262, 55],55 389,143 [189, 100],[189, 100] Z"/>
<path style="fill:rgb(124,109,236);fill-rule:evenodd;stroke:none;opacity:0.29573"
d="M [198, 239],239 300,210 [164, 371],[164, 371] Z"/>
<path style="fill:rgb(85,167,204);fill-rule:evenodd;stroke:none;opacity:0.109086"
d="M [133, 147],147 -64,144 [148, 54],[148, 54] Z"/>
<path style="fill:rgb(45,56,119);fill-rule:evenodd;stroke:none;opacity:0.123951"
d="M [252, 234],234 366,98 [150, 129],[150, 129] Z"/>
<path style="fill:rgb(96,222,248);fill-rule:evenodd;stroke:none;opacity:0.240981"
d="M [300, 102],102 300,-25 [196, 31],[196, 31] Z"/>
<path style="fill:rgb(90,202,171);fill-rule:evenodd;stroke:none;opacity:0.45385"
d="M [65, 92],92 21,-32 [-74, 42],[-74, 42] Z"/>
<path style="fill:rgb(137,36,76);fill-rule:evenodd;stroke:none;opacity:0.2"
d="M [360, 330],330 145,252 [354, 274],[354, 274] Z"/>
<path style="fill:rgb(71,145,209);fill-rule:evenodd;stroke:none;opacity:0.571075"
d="M [161, 52],52 234,-112 [300, -49],[300, -49] Z"/>
<path style="fill:rgb(253,31,106);fill-rule:evenodd;stroke:none;opacity:0.2"
d="M [212, 202],202 20,219 [56, 57],[56, 57] Z"/>
<path style="fill:rgb(223,141,16);fill-rule:evenodd;stroke:none;opacity:0.343244"
d="M [43, 350],350 36,330 [113, 143],[113, 143] Z"/>
<path style="fill:rgb(129,210,199);fill-rule:evenodd;stroke:none;opacity:0.225029"
d="M [192, 47],47 14,53 [36, 237],[36, 237] Z"/>
<path style="fill:rgb(73,213,119);fill-rule:evenodd;stroke:none;opacity:0.463226"
d="M [300, 118],118 148,340 [396, 210],[396, 210] Z"/>
<path style="fill:rgb(123,11,11);fill-rule:evenodd;stroke:none;opacity:0.164103"
d="M [90, 295],295 -42,175 [25, 139],[25, 139] Z"/>
<path style="fill:rgb(39,20,234);fill-rule:evenodd;stroke:none;opacity:0.2"
d="M [83, 328],328 313,235 [79, 83],[79, 83] Z"/>
<path style="fill:rgb(9,48,215);fill-rule:evenodd;stroke:none;opacity:0.254577"
d="M [-6, 234],234 207,135 [87, 249],[87, 249] Z"/>
<path style="fill:rgb(109,207,131);fill-rule:evenodd;stroke:none;opacity:0.2"
d="M [342, -116],-116 201,150 [172, 52],[172, 52] Z"/>
<path style="fill:rgb(192,131,171);fill-rule:evenodd;stroke:none;opacity:0.37109"
d="M [-34, 47],47 36,55 [20, 5],[20, 5] Z"/>
<path style="fill:rgb(77,243,188);fill-rule:evenodd;stroke:none;opacity:0.456215"
d="M [15, -19],-19 83,160 [177, 114],[177, 114] Z"/>
<path style="fill:rgb(125,172,140);fill-rule:evenodd;stroke:none;opacity:0.427683"
d="M [28, 38],38 -33,227 [89, 132],[89, 132] Z"/>
<path style="fill:rgb(35,164,151);fill-rule:evenodd;stroke:none;opacity:0.371509"
d="M [127, -3],-3 195,49 [322, -64],[322, -64] Z"/>
<path style="fill:rgb(158,125,156);fill-rule:evenodd;stroke:none;opacity:0.255922"
d="M [121, 270],270 90,319 [52, 299],[52, 299] Z"/>
<path style="fill:rgb(74,48,23);fill-rule:evenodd;stroke:none;opacity:0.2"
d="M [349, -60],-60 325,-123 [143, -107],[143, -107] Z"/>
</svg>
