<svg viewBox="0 0 300 300">
<path style="fill:rgb(122,114,34);fill-rule:evenodd;stroke:none;opacity:0.323307"
d="M -13.8209,180.97 161.984,-39.9151 0,0 Z"/>
<path style="fill:rgb(2,0,85);fill-rule:evenodd;stroke:none;opacity:0.317918"
d="M 0,26.4918 104.327,363.821 143.538,300 Z"/>
<path style="fill:rgb(243,113,230);fill-rule:evenodd;stroke:none;opacity:0.359546"
d="M 202.898,66.5371 300,20.4106 236.906,0 Z"/>
<path style="fill:rgb(60,37,83);fill-rule:evenodd;stroke:none;opacity:0.968888"
d="M 265.155,47.3758 95.1499,-80.727 52.9661,0 Z"/>
<path style="fill:rgb(255,226,137);fill-rule:evenodd;stroke:none;opacity:0.382937"
d="M 96.6992,244.489 292.679,61.6688 151.389,300 Z"/>
<path style="fill:rgb(20,7,107);fill-rule:evenodd;stroke:none;opacity:0.254096"
d="M 300,264.522 300,314.624 218.034,114.028 Z"/>
<path style="fill:rgb(193,255,169);fill-rule:evenodd;stroke:none;opacity:0.559168"
d="M 223.662,123.636 369.252,188.363 191.453,0 Z"/>
<path style="fill:rgb(0,100,148);fill-rule:evenodd;stroke:none;opacity:0.118935"
d="M 46.9469,170.449 142.258,96.6739 211.104,172.903 Z"/>
<path style="fill:rgb(231,167,73);fill-rule:evenodd;stroke:none;opacity:0.24775"
d="M 167.595,300 68.7234,275.943 186.917,214.619 Z"/>
<path style="fill:rgb(255,136,12);fill-rule:evenodd;stroke:none;opacity:0.270095"
d="M 101.821,345.454 52.9464,269.241 136.354,201.274 Z"/>
<path style="fill:rgb(224,213,157);fill-rule:evenodd;stroke:none;opacity:0.317465"
d="M 295.671,55.466 111.775,-21.1773 97.589,7.25927 Z"/>
<path style="fill:rgb(107,182,57);fill-rule:evenodd;stroke:none;opacity:0"
d="M 300,277.731 84.7405,242.896 252.222,270.343 Z"/>
<path style="fill:rgb(217,0,98);fill-rule:evenodd;stroke:none;opacity:0.108261"
d="M 80.8738,246.893 -43.1634,246.126 47.7072,232.317 Z"/>
<path style="fill:rgb(100,85,0);fill-rule:evenodd;stroke:none;opacity:0.428903"
d="M 40.0647,155.818 12.9841,0 87.4656,45.5657 Z"/>
<path style="fill:rgb(99,248,109);fill-rule:evenodd;stroke:none;opacity:0.339458"
d="M 193.104,239.638 424.941,58.8912 262.777,34.652 Z"/>
<path style="fill:rgb(222,179,52);fill-rule:evenodd;stroke:none;opacity:0.2"
d="M 262.954,363.8 123.552,207.13 217.6,248.211 Z"/>
<path style="fill:rgb(23,120,180);fill-rule:evenodd;stroke:none;opacity:0.224119"
d="M 233.601,77.8579 34.1342,100.429 -37.5097,54.4819 Z"/>
<path style="fill:rgb(220,153,30);fill-rule:evenodd;stroke:none;opacity:0.824869"
d="M 100.134,300 201.079,416.685 107.496,300 Z"/>
<path style="fill:rgb(32,215,2);fill-rule:evenodd;stroke:none;opacity:0"
d="M 119.96,84.6488 138.955,98.7556 300,0 Z"/>
<path style="fill:rgb(117,185,100);fill-rule:evenodd;stroke:none;opacity:0.685341"
d="M 27.6375,115.335 157.149,63.343 -100.286,-31.7034 Z"/>
<path style="fill:rgb(106,63,65);fill-rule:evenodd;stroke:none;opacity:0.0795632"
d="M 323.571,37.7715 300,0 300,35.2739 Z"/>
<path style="fill:rgb(0,24,255);fill-rule:evenodd;stroke:none;opacity:0.0106811"
d="M 300,34.7258 300,65.1332 84.6344,37.186 Z"/>
<path style="fill:rgb(210,77,107);fill-rule:evenodd;stroke:none;opacity:0.26919"
d="M 352.289,294.757 258.131,141.299 280.056,300 Z"/>
<path style="fill:rgb(255,32,0);fill-rule:evenodd;stroke:none;opacity:0.222131"
d="M 80.8852,307.098 0,277.704 -64.7021,136.029 Z"/>
<path style="fill:rgb(113,100,191);fill-rule:evenodd;stroke:none;opacity:0.510905"
d="M 300,-68.1944 157.817,18.5436 388.569,161.033 Z"/>
<path style="fill:rgb(79,39,47);fill-rule:evenodd;stroke:none;opacity:0.373802"
d="M 55.2275,184.898 58.2578,173.331 113.77,258.208 Z"/>
<path style="fill:rgb(45,176,197);fill-rule:evenodd;stroke:none;opacity:0.26327"
d="M 228.93,0 284.925,0 176.717,0 Z"/>
<path style="fill:rgb(221,129,240);fill-rule:evenodd;stroke:none;opacity:0.0130691"
d="M 300,340.795 300,256.714 300,202.347 Z"/>
<path style="fill:rgb(0,124,109);fill-rule:evenodd;stroke:none;opacity:0.243742"
d="M 12.2936,3.07253 72.1544,64.3946 192.356,-26.041 Z"/>
<path style="fill:rgb(127,255,109);fill-rule:evenodd;stroke:none;opacity:0.368917"
d="M 138.135,255.352 109.447,144.387 168.848,99.4249 Z"/>
<path style="fill:rgb(151,1,106);fill-rule:evenodd;stroke:none;opacity:0.329103"
d="M 300,-107.596 338.107,182.393 94.4119,134.611 Z"/>
<path style="fill:rgb(243,231,86);fill-rule:evenodd;stroke:none;opacity:0.284852"
d="M 158.268,166.284 38.1223,300 94.2467,300 Z"/>
<path style="fill:rgb(149,92,255);fill-rule:evenodd;stroke:none;opacity:0.0513978"
d="M 0,250.204 0,205.543 0,28.4999 Z"/>
<path style="fill:rgb(255,236,10);fill-rule:evenodd;stroke:none;opacity:0.361705"
d="M 300,187.939 318.898,185.436 244.261,255.074 Z"/>
<path style="fill:rgb(188,115,144);fill-rule:evenodd;stroke:none;opacity:0.235959"
d="M 74.7366,392.009 -114.689,156.484 0,145.189 Z"/>
<path style="fill:rgb(255,255,255);fill-rule:evenodd;stroke:none;opacity:0.0523055"
d="M 300,57.0366 237.645,42.1347 56.2411,60.1613 Z"/>
<path style="fill:rgb(0,0,69);fill-rule:evenodd;stroke:none;opacity:0.40377"
d="M 174.007,163.071 277.31,41.881 287.238,372.586 Z"/>
<path style="fill:rgb(0,0,216);fill-rule:evenodd;stroke:none;opacity:0.2"
d="M 323.007,139.486 175.335,150.058 111.802,218.049 Z"/>
<path style="fill:rgb(242,10,56);fill-rule:evenodd;stroke:none;opacity:0.2"
d="M 408.617,243.198 61.8191,53.9982 149.824,272.967 Z"/>
<path style="fill:rgb(255,112,135);fill-rule:evenodd;stroke:none;opacity:0.132789"
d="M 89.6692,62.4027 99.6131,297.471 265.706,261.424 Z"/>
<path style="fill:rgb(95,211,255);fill-rule:evenodd;stroke:none;opacity:0.056471"
d="M 0,93.7698 207.275,38.2456 0,63.7148 Z"/>
<path style="fill:rgb(255,255,121);fill-rule:evenodd;stroke:none;opacity:0.120685"
d="M 60.7901,230.424 84.3447,0 27.6127,39.5351 Z"/>
<path style="fill:rgb(239,191,0);fill-rule:evenodd;stroke:none;opacity:0.282788"
d="M 356.541,-27.5815 101.013,10.3362 223.051,48.3469 Z"/>
<path style="fill:rgb(67,68,0);fill-rule:evenodd;stroke:none;opacity:0"
d="M 300,0 291.809,143.082 255.005,0 Z"/>
<path style="fill:rgb(52,255,41);fill-rule:evenodd;stroke:none;opacity:0"
d="M 201.35,59.2373 80.08,30.1505 300,300 Z"/>
<path style="fill:rgb(106,255,22);fill-rule:evenodd;stroke:none;opacity:0.2"
d="M 422.662,97.1373 197.987,71.8641 180.697,-63.2289 Z"/>
<path style="fill:rgb(228,194,39);fill-rule:evenodd;stroke:none;opacity:0.499545"
d="M 0,0 57.9043,89.8802 -41.0331,112.62 Z"/>
<path style="fill:rgb(60,71,88);fill-rule:evenodd;stroke:none;opacity:0"
d="M 131.251,1.69139 239.523,153.128 48.2222,78.9577 Z"/>
<path style="fill:rgb(136,57,17);fill-rule:evenodd;stroke:none;opacity:0.409583"
d="M 148.102,0 135.177,118.323 0,10.8542 Z"/>
<path style="fill:rgb(255,67,208);fill-rule:evenodd;stroke:none;opacity:0"
d="M 0,113.759 0,87.585 236.738,0 Z"/>
<path style="fill:rgb(123,23,128);fill-rule:evenodd;stroke:none;opacity:0.2"
d="M 50.3526,370.528 68.4762,175.555 18.1637,192.986 Z"/>
<path style="fill:rgb(245,238,41);fill-rule:evenodd;stroke:none;opacity:0.251877"
d="M 55.1865,235.502 -116.598,300 13.5925,300.574 Z"/>
<path style="fill:rgb(0,52,171);fill-rule:evenodd;stroke:none;opacity:0"
d="M 179.417,1.86809 207.499,101.745 300,0 Z"/>
<path style="fill:rgb(255,255,159);fill-rule:evenodd;stroke:none;opacity:0.466382"
d="M 63.6794,276.246 166.361,190.698 184.476,291.4 Z"/>
<path style="fill:rgb(255,255,218);fill-rule:evenodd;stroke:none;opacity:0.320365"
d="M 356.926,108.905 286.837,159.01 291.581,227.702 Z"/>
<path style="fill:rgb(139,216,107);fill-rule:evenodd;stroke:none;opacity:0.2"
d="M 31.7906,52.3319 276.446,205.18 86.4858,-9.43944 Z"/>
<path style="fill:rgb(127,122,80);fill-rule:evenodd;stroke:none;opacity:0.229904"
d="M 136.291,0 300,136.122 300,0 Z"/>
<path style="fill:rgb(155,98,146);fill-rule:evenodd;stroke:none;opacity:0"
d="M 47.4673,0 300,59.1393 351.091,0 Z"/>
<path style="fill:rgb(253,255,116);fill-rule:evenodd;stroke:none;opacity:0.283227"
d="M 163.293,227.86 131.744,0 83.9746,139.793 Z"/>
<path style="fill:rgb(43,246,224);fill-rule:evenodd;stroke:none;opacity:0.0354911"
d="M 65.1063,326.765 151.897,300 201.496,290.292 Z"/>
<path style="fill:rgb(128,190,131);fill-rule:evenodd;stroke:none;opacity:0.311557"
d="M 300,258.569 230.108,196.396 262.274,-40.6749 Z"/>
<path style="fill:rgb(237,255,140);fill-rule:evenodd;stroke:none;opacity:0.290798"
d="M 325.97,62.5877 316.015,279.924 184.985,164.477 Z"/>
<path style="fill:rgb(67,138,97);fill-rule:evenodd;stroke:none;opacity:0.571349"
d="M 62.83,0 -20.0944,65.2866 10.3783,-43.8962 Z"/>
<path style="fill:rgb(103,110,24);fill-rule:evenodd;stroke:none;opacity:0.382129"
d="M 327.212,313.432 208.021,174.027 292.279,245.621 Z"/>
<path style="fill:rgb(134,140,174);fill-rule:evenodd;stroke:none;opacity:0.212706"
d="M 30.1157,98.0133 128.188,9.83188 -27.1674,31.7212 Z"/>
<path style="fill:rgb(0,0,88);fill-rule:evenodd;stroke:none;opacity:0.299075"
d="M 94.4014,223.262 128.675,113.814 177.941,200.338 Z"/>
<path style="fill:rgb(176,143,208);fill-rule:evenodd;stroke:none;opacity:0.170589"
d="M -68.3675,300 8.12311,-53.6106 181.438,94.1174 Z"/>
<path style="fill:rgb(255,186,204);fill-rule:evenodd;stroke:none;opacity:0.0498491"
d="M 33.4518,151.025 282.687,346.037 123.483,300 Z"/>
<path style="fill:rgb(32,167,198);fill-rule:evenodd;stroke:none;opacity:0.0293448"
d="M 0,297.478 0,277.628 0,170.825 Z"/>
<path style="fill:rgb(99,124,56);fill-rule:evenodd;stroke:none;opacity:0.239405"
d="M 163.027,279.501 279.957,400.945 287.077,0 Z"/>
<path style="fill:rgb(255,224,78);fill-rule:evenodd;stroke:none;opacity:0.252165"
d="M 94.7987,207.055 98.8592,300 277.3,415.857 Z"/>
<path style="fill:rgb(137,206,86);fill-rule:evenodd;stroke:none;opacity:0.123744"
d="M 173.875,-18.1008 348.692,107.171 76.438,151.182 Z"/>
<path style="fill:rgb(181,45,74);fill-rule:evenodd;stroke:none;opacity:0"
d="M 294.511,0 0,169.785 3.74917,197.151 Z"/>
<path style="fill:rgb(212,51,213);fill-rule:evenodd;stroke:none;opacity:0.228574"
d="M 8.20946,-65.0354 121.85,0 -12.0734,0 Z"/>
<path style="fill:rgb(16,65,0);fill-rule:evenodd;stroke:none;opacity:0.031981"
d="M -64.0927,198.203 -21.3602,-23.5443 98.4168,88.4008 Z"/>
<path style="fill:rgb(244,103,101);fill-rule:evenodd;stroke:none;opacity:0.283625"
d="M 0,270.431 46.6786,333.482 0,300 Z"/>
<path style="fill:rgb(53,171,129);fill-rule:evenodd;stroke:none;opacity:0.254162"
d="M 11.4424,0 30.298,52.6769 225.796,0 Z"/>
<path style="fill:rgb(74,12,18);fill-rule:evenodd;stroke:none;opacity:0.18563"
d="M 239.743,97.1862 107.784,240.948 224.078,171.902 Z"/>
<path style="fill:rgb(0,0,0);fill-rule:evenodd;stroke:none;opacity:0.304014"
d="M 156.467,202.097 245.191,216.518 200.867,45.1251 Z"/>
<path style="fill:rgb(212,117,255);fill-rule:evenodd;stroke:none;opacity:0.2"
d="M 71.674,77.2688 -73.5277,87.53 51.9608,226.274 Z"/>
<path style="fill:rgb(247,177,37);fill-rule:evenodd;stroke:none;opacity:0.23954"
d="M 0,-2.11408 149.957,-55.1066 182.372,287.142 Z"/>
<path style="fill:rgb(0,0,9);fill-rule:evenodd;stroke:none;opacity:0.352588"
d="M 367.105,208.603 192.99,227.251 149.01,0 Z"/>
<path style="fill:rgb(79,59,17);fill-rule:evenodd;stroke:none;opacity:0.0987479"
d="M 353.508,149.101 109.001,0 249.13,244.731 Z"/>
<path style="fill:rgb(22,38,71);fill-rule:evenodd;stroke:none;opacity:0.155612"
d="M 266.277,136.673 177.108,68.4982 139.002,233.256 Z"/>
<path style="fill:rgb(155,43,0);fill-rule:evenodd;stroke:none;opacity:0"
d="M 0,21.0272 96.3684,0 0,83.0736 Z"/>
<path style="fill:rgb(255,255,92);fill-rule:evenodd;stroke:none;opacity:0"
d="M 98.5749,160.894 153.641,213.156 88.192,15.2628 Z"/>
<path style="fill:rgb(50,172,61);fill-rule:evenodd;stroke:none;opacity:0.251646"
d="M -63.5838,287.585 61.3997,234 69.8832,67.1231 Z"/>
<path style="fill:rgb(255,177,18);fill-rule:evenodd;stroke:none;opacity:0.175665"
d="M 194.474,300 167.874,26.4513 -90.5403,232.804 Z"/>
<path style="fill:rgb(58,0,0);fill-rule:evenodd;stroke:none;opacity:0.193385"
d="M 146.647,139.86 -96.6145,217.278 2.08874,120.868 Z"/>
<path style="fill:rgb(69,163,12);fill-rule:evenodd;stroke:none;opacity:0.280943"
d="M 53.724,89.501 0,195.455 -102.304,81.1631 Z"/>
<path style="fill:rgb(46,20,0);fill-rule:evenodd;stroke:none;opacity:0.414209"
d="M 110.608,197.581 225.675,201.142 217.544,94.1819 Z"/>
<path style="fill:rgb(74,91,45);fill-rule:evenodd;stroke:none;opacity:0.657394"
d="M 351.653,74.567 284.103,141.882 300,211.621 Z"/>
<path style="fill:rgb(255,230,114);fill-rule:evenodd;stroke:none;opacity:0.317383"
d="M 190.586,253.242 110.727,198.55 114.715,324.775 Z"/>
<path style="fill:rgb(113,205,157);fill-rule:evenodd;stroke:none;opacity:0.263495"
d="M 300,133.027 260.719,-26.8899 300,0 Z"/>
<path style="fill:rgb(123,126,227);fill-rule:evenodd;stroke:none;opacity:0"
d="M 184.044,74.5885 0,300 300,199.679 Z"/>
<path style="fill:rgb(42,31,43);fill-rule:evenodd;stroke:none;opacity:0.606033"
d="M 24.4531,300 60.2714,202.755 87.6436,300 Z"/>
<path style="fill:rgb(81,255,139);fill-rule:evenodd;stroke:none;opacity:0"
d="M 139.314,290.715 115.562,228.25 134.177,140.682 Z"/>
<path style="fill:rgb(230,179,99);fill-rule:evenodd;stroke:none;opacity:0.44907"
d="M 343.869,149.489 307.499,0 211.487,66.5408 Z"/>
<path style="fill:rgb(105,158,91);fill-rule:evenodd;stroke:none;opacity:0.317169"
d="M 226.821,0 211.212,156.604 333.488,13.9391 Z"/>
<path style="fill:rgb(254,0,83);fill-rule:evenodd;stroke:none;opacity:0.75529"
d="M 300,37.9217 396.632,209.657 300,279.668 Z"/>
</svg>
