<svg viewBox="0 0 300 300">
<path style="fill:rgb(34,244,170);fill-rule:evenodd;stroke:none;opacity:0.294364"
d="M 351.659,152.389 336.418,100.27 121.5,267.751 Z"/>
<path style="fill:rgb(28,201,233);fill-rule:evenodd;stroke:none;opacity:0.455157"
d="M 339.32,-9.71732 221.97,207.21 183.657,86.7944 Z"/>
<path style="fill:rgb(237,25,22);fill-rule:evenodd;stroke:none;opacity:0.542718"
d="M 238.815,-118.772 260.274,51.8581 284.345,-46.7541 Z"/>
<path style="fill:rgb(120,117,185);fill-rule:evenodd;stroke:none;opacity:0.409284"
d="M 181.771,190.403 223.531,9.49994 83.5247,92.3651 Z"/>
<path style="fill:rgb(13,63,245);fill-rule:evenodd;stroke:none;opacity:0.2"
d="M 145.091,200.21 254.082,27.9448 377.784,65.0101 Z"/>
<path style="fill:rgb(127,97,146);fill-rule:evenodd;stroke:none;opacity:0.454381"
d="M 17.2268,106.538 -23.8115,161.719 -8.37656,148.71 Z"/>
<path style="fill:rgb(106,185,62);fill-rule:evenodd;stroke:none;opacity:0.2"
d="M 258.957,234.169 355.235,89.8099 126.989,176.377 Z"/>
<path style="fill:rgb(181,136,171);fill-rule:evenodd;stroke:none;opacity:0.425873"
d="M 178.091,-128.725 192.837,65.3223 114.438,-58.8419 Z"/>
<path style="fill:rgb(99,104,10);fill-rule:evenodd;stroke:none;opacity:0.284925"
d="M 85.8784,-6.38278 47.6784,238.018 35.9834,144.599 Z"/>
<path style="fill:rgb(203,225,186);fill-rule:evenodd;stroke:none;opacity:0.33022"
d="M 86.6977,65.2727 213.701,31.853 194.038,94.4634 Z"/>
<path style="fill:rgb(246,176,81);fill-rule:evenodd;stroke:none;opacity:0.58906"
d="M 365.413,123.62 215.527,-115.387 96.6063,-108.271 Z"/>
<path style="fill:rgb(182,61,41);fill-rule:evenodd;stroke:none;opacity:0.2"
d="M 177.224,143.73 389.4,325.221 311.704,322.826 Z"/>
<path style="fill:rgb(156,124,50);fill-rule:evenodd;stroke:none;opacity:0.531477"
d="M 274.672,64.4956 242.087,93.63 350.311,93.1636 Z"/>
<path style="fill:rgb(86,221,186);fill-rule:evenodd;stroke:none;opacity:0.2"
d="M 246.346,193.17 265.589,75.9357 256.125,79.0813 Z"/>
<path style="fill:rgb(110,191,33);fill-rule:evenodd;stroke:none;opacity:0.235602"
d="M 174.117,224.542 -81.101,215.285 75.7793,172.241 Z"/>
<path style="fill:rgb(126,136,119);fill-rule:evenodd;stroke:none;opacity:0.2"
d="M 301.657,178.503 321.491,-89.4383 143.927,93.5213 Z"/>
<path style="fill:rgb(24,125,31);fill-rule:evenodd;stroke:none;opacity:0.2"
d="M 162.354,102.548 240.689,165.03 426.31,242.428 Z"/>
<path style="fill:rgb(88,148,92);fill-rule:evenodd;stroke:none;opacity:0.434406"
d="M 175.951,347.573 387.987,383.363 218.023,311.659 Z"/>
<path style="fill:rgb(34,74,143);fill-rule:evenodd;stroke:none;opacity:0.471257"
d="M 181.62,150.993 -25.4913,117.745 12.296,354.697 Z"/>
<path style="fill:rgb(4,196,114);fill-rule:evenodd;stroke:none;opacity:0.368059"
d="M 119.335,74.4799 30.5417,-20.952 180.984,64.6088 Z"/>
<path style="fill:rgb(194,115,147);fill-rule:evenodd;stroke:none;opacity:0.2"
d="M 237.204,42.3836 247.181,293.57 168.662,205.167 Z"/>
<path style="fill:rgb(134,64,121);fill-rule:evenodd;stroke:none;opacity:0.3868"
d="M -46.0162,127.183 121.008,19.8195 39.7001,222.531 Z"/>
<path style="fill:rgb(200,27,98);fill-rule:evenodd;stroke:none;opacity:0.441246"
d="M 246.354,-52.1112 148.118,-44.7905 286.451,-26.1894 Z"/>
<path style="fill:rgb(75,52,49);fill-rule:evenodd;stroke:none;opacity:0.25481"
d="M 143.549,216.085 94.3256,-38.3989 253.652,126.109 Z"/>
<path style="fill:rgb(87,66,136);fill-rule:evenodd;stroke:none;opacity:0.2"
d="M 31.9596,157.219 51.4939,147.851 122.032,127.86 Z"/>
<path style="fill:rgb(108,38,219);fill-rule:evenodd;stroke:none;opacity:0.330343"
d="M 332.859,221.142 71.903,312.476 65.6355,373.12 Z"/>
<path style="fill:rgb(47,6,140);fill-rule:evenodd;stroke:none;opacity:0.2"
d="M 143.686,149.809 58.9701,225.668 275.385,281.702 Z"/>
<path style="fill:rgb(183,150,105);fill-rule:evenodd;stroke:none;opacity:0.278287"
d="M 219.015,221.272 127.186,337.645 224.497,156.392 Z"/>
<path style="fill:rgb(15,247,115);fill-rule:evenodd;stroke:none;opacity:0.336169"
d="M 218.836,364.777 114.158,158.071 65.8104,420.956 Z"/>
<path style="fill:rgb(120,202,47);fill-rule:evenodd;stroke:none;opacity:0.494824"
d="M 282.567,-56.4576 282.607,152.11 213.458,117.391 Z"/>
<path style="fill:rgb(114,242,81);fill-rule:evenodd;stroke:none;opacity:0.2"
d="M 202.807,-38.2085 181.185,155.762 139.545,-10.0612 Z"/>
<path style="fill:rgb(95,125,45);fill-rule:evenodd;stroke:none;opacity:0.306388"
d="M 19.3619,387.443 164.62,355.477 47.4468,270.913 Z"/>
<path style="fill:rgb(188,37,239);fill-rule:evenodd;stroke:none;opacity:0.273461"
d="M -61.4151,-40.0551 74.2554,114.872 -55.3636,121.672 Z"/>
<path style="fill:rgb(84,47,47);fill-rule:evenodd;stroke:none;opacity:0.2"
d="M 259.45,153.598 286.421,-54.6223 137.247,55.5179 Z"/>
<path style="fill:rgb(9,132,219);fill-rule:evenodd;stroke:none;opacity:0.2"
d="M 60.5624,4.29445 243.328,219.533 154.227,240.126 Z"/>
<path style="fill:rgb(21,139,178);fill-rule:evenodd;stroke:none;opacity:0.224492"
d="M 147.943,-28.0703 101.232,-18.355 -11.2375,154.888 Z"/>
<path style="fill:rgb(115,41,220);fill-rule:evenodd;stroke:none;opacity:0.307937"
d="M 194.038,-82.2003 252.398,163.337 185.265,-32.2951 Z"/>
<path style="fill:rgb(215,25,213);fill-rule:evenodd;stroke:none;opacity:0.516619"
d="M 324.06,377.502 326.122,301.819 297.678,180.964 Z"/>
<path style="fill:rgb(25,155,49);fill-rule:evenodd;stroke:none;opacity:0.2"
d="M 208.884,131.414 404.833,180.477 164.396,135.533 Z"/>
<path style="fill:rgb(46,162,12);fill-rule:evenodd;stroke:none;opacity:0.38388"
d="M -36.7886,45.7125 41.208,54.5341 -55.3593,212.737 Z"/>
<path style="fill:rgb(99,175,244);fill-rule:evenodd;stroke:none;opacity:0.274147"
d="M 110.688,272.588 132.318,386.192 16.9416,399.39 Z"/>
<path style="fill:rgb(46,104,90);fill-rule:evenodd;stroke:none;opacity:0.286974"
d="M 300.053,76.3692 98.7494,207.516 197.547,15.47 Z"/>
<path style="fill:rgb(107,64,82);fill-rule:evenodd;stroke:none;opacity:0.307766"
d="M 183.593,352.869 219.159,145.98 65.7433,203.907 Z"/>
<path style="fill:rgb(5,246,64);fill-rule:evenodd;stroke:none;opacity:0.2"
d="M 197.531,120.67 387.823,384.673 380.688,329.446 Z"/>
<path style="fill:rgb(74,142,134);fill-rule:evenodd;stroke:none;opacity:0.37357"
d="M 187.958,280.233 27.7628,163.696 93.2671,-4.27541 Z"/>
<path style="fill:rgb(35,215,137);fill-rule:evenodd;stroke:none;opacity:0.278765"
d="M 182.144,27.4941 332.005,-24.3629 357.187,151.254 Z"/>
<path style="fill:rgb(37,120,33);fill-rule:evenodd;stroke:none;opacity:0.2"
d="M 198.692,150.631 118.361,232.976 379.884,50.641 Z"/>
<path style="fill:rgb(184,236,164);fill-rule:evenodd;stroke:none;opacity:0.326945"
d="M -104.213,22.33 48.4039,151.609 107.09,-74.1334 Z"/>
<path style="fill:rgb(34,175,36);fill-rule:evenodd;stroke:none;opacity:0.2"
d="M 356.774,251.061 369.342,201.948 154.138,191.408 Z"/>
<path style="fill:rgb(63,61,46);fill-rule:evenodd;stroke:none;opacity:0.46161"
d="M 45.648,174.207 321.173,52.0348 59.4669,-20.1467 Z"/>
</svg>
