<svg viewBox="0 0 340 255">
<rect width="340" height="255" style="fill:rgb(0,0,0);" />
<path style="fill:rgb(5,174,32);fill-rule:evenodd;stroke:none;opacity:0.513611"
d="M 145,80 127,11 110,11 Z"/>
<path style="fill:rgb(179,98,189);fill-rule:evenodd;stroke:none;opacity:0.822052"
d="M 138,219 290,40 307,255 Z"/>
<path style="fill:rgb(216,21,193);fill-rule:evenodd;stroke:none;opacity:0.038348"
d="M 209,80 241,255 86,83 Z"/>
<path style="fill:rgb(194,191,219);fill-rule:evenodd;stroke:none;opacity:0.337503"
d="M 38,208 100,31 340,114 Z"/>
<path style="fill:rgb(255,202,137);fill-rule:evenodd;stroke:none;opacity:0.302"
d="M 12,0 102,40 18,11 Z"/>
<path style="fill:rgb(54,231,255);fill-rule:evenodd;stroke:none;opacity:0.0452248"
d="M 196,30 196,5 196,121 Z"/>
<path style="fill:rgb(248,71,86);fill-rule:evenodd;stroke:none;opacity:0.532449"
d="M 226,117 142,104 126,80 Z"/>
<path style="fill:rgb(22,209,79);fill-rule:evenodd;stroke:none;opacity:0.281551"
d="M 116,206 56,79 39,229 Z"/>
<path style="fill:rgb(188,179,72);fill-rule:evenodd;stroke:none;opacity:0.401323"
d="M 205,255 131,144 66,57 Z"/>
<path style="fill:rgb(103,246,75);fill-rule:evenodd;stroke:none;opacity:0.055953"
d="M 260,27 131,0 171,67 Z"/>
<path style="fill:rgb(0,190,156);fill-rule:evenodd;stroke:none;opacity:0.103654"
d="M 65,54 164,71 156,79 Z"/>
<path style="fill:rgb(81,192,88);fill-rule:evenodd;stroke:none;opacity:0.242526"
d="M 148,112 39,225 95,175 Z"/>
<path style="fill:rgb(247,0,114);fill-rule:evenodd;stroke:none;opacity:0.374211"
d="M 177,142 115,29 222,223 Z"/>
<path style="fill:rgb(252,65,135);fill-rule:evenodd;stroke:none;opacity:0.520794"
d="M 258,112 304,23 60,112 Z"/>
<path style="fill:rgb(127,91,24);fill-rule:evenodd;stroke:none;opacity:0.343954"
d="M 48,255 299,228 232,227 Z"/>
<path style="fill:rgb(184,75,116);fill-rule:evenodd;stroke:none;opacity:0.425527"
d="M 35,222 93,106 0,156 Z"/>
<path style="fill:rgb(104,254,189);fill-rule:evenodd;stroke:none;opacity:0.56583"
d="M 86,157 45,50 20,9 Z"/>
<path style="fill:rgb(142,140,153);fill-rule:evenodd;stroke:none;opacity:0.173963"
d="M 340,21 281,107 106,26 Z"/>
<path style="fill:rgb(255,60,42);fill-rule:evenodd;stroke:none;opacity:0.0559791"
d="M 322,159 20,188 179,0 Z"/>
<path style="fill:rgb(141,90,106);fill-rule:evenodd;stroke:none;opacity:0.389593"
d="M 168,114 133,234 128,201 Z"/>
<path style="fill:rgb(57,246,160);fill-rule:evenodd;stroke:none;opacity:0.399599"
d="M 202,134 123,214 321,35 Z"/>
<path style="fill:rgb(46,174,251);fill-rule:evenodd;stroke:none;opacity:0.662306"
d="M 332,37 216,21 340,228 Z"/>
<path style="fill:rgb(91,21,244);fill-rule:evenodd;stroke:none;opacity:0.132204"
d="M 0,122 120,96 63,63 Z"/>
<path style="fill:rgb(42,52,86);fill-rule:evenodd;stroke:none;opacity:0.146912"
d="M 8,71 0,0 80,27 Z"/>
<path style="fill:rgb(177,161,203);fill-rule:evenodd;stroke:none;opacity:0.326117"
d="M 284,11 171,0 283,153 Z"/>
<path style="fill:rgb(106,143,98);fill-rule:evenodd;stroke:none;opacity:0.244514"
d="M 274,141 191,60 340,108 Z"/>
<path style="fill:rgb(96,26,12);fill-rule:evenodd;stroke:none;opacity:0.235554"
d="M 287,71 176,196 142,99 Z"/>
<path style="fill:rgb(212,57,188);fill-rule:evenodd;stroke:none;opacity:0.332255"
d="M 65,211 52,95 146,222 Z"/>
<path style="fill:rgb(200,84,72);fill-rule:evenodd;stroke:none;opacity:0.325808"
d="M 249,231 125,204 134,104 Z"/>
<path style="fill:rgb(211,225,70);fill-rule:evenodd;stroke:none;opacity:0"
d="M 278,4 213,52 50,21 Z"/>
<path style="fill:rgb(26,137,120);fill-rule:evenodd;stroke:none;opacity:0.216707"
d="M 171,222 149,23 165,217 Z"/>
<path style="fill:rgb(0,240,19);fill-rule:evenodd;stroke:none;opacity:0.419001"
d="M 166,78 209,4 100,73 Z"/>
<path style="fill:rgb(176,149,33);fill-rule:evenodd;stroke:none;opacity:0.153866"
d="M 249,219 271,88 117,220 Z"/>
<path style="fill:rgb(5,115,27);fill-rule:evenodd;stroke:none;opacity:0.136865"
d="M 0,89 34,72 128,70 Z"/>
<path style="fill:rgb(115,145,134);fill-rule:evenodd;stroke:none;opacity:0.318368"
d="M 46,61 131,191 249,80 Z"/>
<path style="fill:rgb(255,255,255);fill-rule:evenodd;stroke:none;opacity:1"
d="M 340,255 220,255 340,130 Z"/>
<path style="fill:rgb(242,255,121);fill-rule:evenodd;stroke:none;opacity:0.328143"
d="M 275,136 258,242 107,222 Z"/>
<path style="fill:rgb(251,85,202);fill-rule:evenodd;stroke:none;opacity:0.10299"
d="M 240,255 107,98 185,147 Z"/>
<path style="fill:rgb(236,94,17);fill-rule:evenodd;stroke:none;opacity:0"
d="M 87,40 197,0 60,30 Z"/>
<path style="fill:rgb(160,63,201);fill-rule:evenodd;stroke:none;opacity:0.435626"
d="M 21,91 64,116 65,0 Z"/>
<path style="fill:rgb(115,28,235);fill-rule:evenodd;stroke:none;opacity:0.212755"
d="M 116,75 49,23 134,25 Z"/>
<path style="fill:rgb(67,215,167);fill-rule:evenodd;stroke:none;opacity:0.364782"
d="M 83,162 174,193 120,215 Z"/>
<path style="fill:rgb(230,66,158);fill-rule:evenodd;stroke:none;opacity:0.614098"
d="M 0,255 7,156 101,33 Z"/>
<path style="fill:rgb(13,5,55);fill-rule:evenodd;stroke:none;opacity:0"
d="M 170,199 13,252 3,220 Z"/>
<path style="fill:rgb(119,143,8);fill-rule:evenodd;stroke:none;opacity:0.162363"
d="M 340,255 289,182 135,165 Z"/>
<path style="fill:rgb(14,0,100);fill-rule:evenodd;stroke:none;opacity:0.345933"
d="M 165,28 186,71 114,46 Z"/>
<path style="fill:rgb(102,49,255);fill-rule:evenodd;stroke:none;opacity:0.286972"
d="M 46,143 0,205 99,139 Z"/>
<path style="fill:rgb(110,187,232);fill-rule:evenodd;stroke:none;opacity:0.34276"
d="M 154,7 316,146 240,45 Z"/>
<path style="fill:rgb(0,239,255);fill-rule:evenodd;stroke:none;opacity:0.505379"
d="M 269,78 158,215 253,67 Z"/>
<path style="fill:rgb(151,242,217);fill-rule:evenodd;stroke:none;opacity:0.512484"
d="M 123,201 45,33 149,178 Z"/>
<path style="fill:rgb(203,180,86);fill-rule:evenodd;stroke:none;opacity:0.024618"
d="M 43,20 149,129 211,13 Z"/>
<path style="fill:rgb(37,83,136);fill-rule:evenodd;stroke:none;opacity:0.186749"
d="M 184,185 85,49 99,17 Z"/>
<path style="fill:rgb(115,148,82);fill-rule:evenodd;stroke:none;opacity:0.15658"
d="M 189,45 215,48 215,0 Z"/>
<path style="fill:rgb(94,30,85);fill-rule:evenodd;stroke:none;opacity:0.321358"
d="M 142,0 83,28 168,218 Z"/>
<path style="fill:rgb(165,149,236);fill-rule:evenodd;stroke:none;opacity:0.171835"
d="M 100,98 38,180 53,111 Z"/>
<path style="fill:rgb(106,91,168);fill-rule:evenodd;stroke:none;opacity:0.572992"
d="M 340,143 221,255 215,139 Z"/>
<path style="fill:rgb(7,156,30);fill-rule:evenodd;stroke:none;opacity:0.544696"
d="M 15,86 33,111 21,255 Z"/>
<path style="fill:rgb(71,15,109);fill-rule:evenodd;stroke:none;opacity:0.243322"
d="M 340,134 253,83 156,159 Z"/>
<path style="fill:rgb(20,188,145);fill-rule:evenodd;stroke:none;opacity:0.363886"
d="M 22,22 20,128 41,21 Z"/>
<path style="fill:rgb(119,106,235);fill-rule:evenodd;stroke:none;opacity:0.42548"
d="M 170,224 260,181 144,224 Z"/>
<path style="fill:rgb(255,29,92);fill-rule:evenodd;stroke:none;opacity:0.260467"
d="M 71,59 155,139 57,255 Z"/>
<path style="fill:rgb(148,161,255);fill-rule:evenodd;stroke:none;opacity:0.608685"
d="M 40,255 159,255 71,159 Z"/>
<path style="fill:rgb(13,228,137);fill-rule:evenodd;stroke:none;opacity:0.401621"
d="M 317,39 319,0 223,44 Z"/>
<path style="fill:rgb(178,224,16);fill-rule:evenodd;stroke:none;opacity:0.243004"
d="M 144,86 7,234 124,239 Z"/>
<path style="fill:rgb(39,61,43);fill-rule:evenodd;stroke:none;opacity:0.323502"
d="M 111,189 74,99 0,158 Z"/>
<path style="fill:rgb(70,193,219);fill-rule:evenodd;stroke:none;opacity:0.261905"
d="M 11,215 155,174 143,92 Z"/>
<path style="fill:rgb(181,159,212);fill-rule:evenodd;stroke:none;opacity:0.485113"
d="M 200,153 251,224 206,192 Z"/>
<path style="fill:rgb(255,59,150);fill-rule:evenodd;stroke:none;opacity:0.202702"
d="M 24,149 0,68 172,62 Z"/>
<path style="fill:rgb(195,167,160);fill-rule:evenodd;stroke:none;opacity:0.221399"
d="M 115,26 95,88 32,48 Z"/>
<path style="fill:rgb(253,74,96);fill-rule:evenodd;stroke:none;opacity:0.557265"
d="M 37,28 174,107 72,6 Z"/>
<path style="fill:rgb(237,238,237);fill-rule:evenodd;stroke:none;opacity:0.707519"
d="M 210,113 188,0 102,0 Z"/>
<path style="fill:rgb(213,255,255);fill-rule:evenodd;stroke:none;opacity:0.45503"
d="M 297,23 246,88 287,146 Z"/>
<path style="fill:rgb(128,160,160);fill-rule:evenodd;stroke:none;opacity:0.255426"
d="M 37,40 70,24 38,71 Z"/>
<path style="fill:rgb(130,202,198);fill-rule:evenodd;stroke:none;opacity:0.229665"
d="M 45,246 45,194 0,186 Z"/>
<path style="fill:rgb(170,198,222);fill-rule:evenodd;stroke:none;opacity:0.272291"
d="M 0,0 134,69 30,65 Z"/>
<path style="fill:rgb(199,209,154);fill-rule:evenodd;stroke:none;opacity:0.283391"
d="M 100,116 233,13 48,47 Z"/>
<path style="fill:rgb(161,63,15);fill-rule:evenodd;stroke:none;opacity:0.554913"
d="M 25,170 43,57 194,54 Z"/>
<path style="fill:rgb(240,146,110);fill-rule:evenodd;stroke:none;opacity:0.4328"
d="M 92,94 48,73 98,106 Z"/>
<path style="fill:rgb(86,240,71);fill-rule:evenodd;stroke:none;opacity:0.584225"
d="M 54,189 120,239 173,76 Z"/>
<path style="fill:rgb(135,89,89);fill-rule:evenodd;stroke:none;opacity:0.141576"
d="M 56,185 151,38 94,92 Z"/>
<path style="fill:rgb(245,228,50);fill-rule:evenodd;stroke:none;opacity:0.444583"
d="M 0,50 0,97 185,52 Z"/>
<path style="fill:rgb(255,0,141);fill-rule:evenodd;stroke:none;opacity:0.320365"
d="M 84,207 89,214 77,237 Z"/>
<path style="fill:rgb(207,122,141);fill-rule:evenodd;stroke:none;opacity:0"
d="M 170,59 201,109 309,6 Z"/>
<path style="fill:rgb(248,244,231);fill-rule:evenodd;stroke:none;opacity:0.584616"
d="M 182,30 291,125 314,13 Z"/>
<path style="fill:rgb(31,255,203);fill-rule:evenodd;stroke:none;opacity:0.52995"
d="M 79,255 37,228 49,161 Z"/>
<path style="fill:rgb(151,211,0);fill-rule:evenodd;stroke:none;opacity:0.543474"
d="M 195,230 251,225 176,185 Z"/>
<path style="fill:rgb(85,229,209);fill-rule:evenodd;stroke:none;opacity:0.109936"
d="M 208,21 64,104 138,14 Z"/>
<path style="fill:rgb(96,18,141);fill-rule:evenodd;stroke:none;opacity:0.504098"
d="M 272,200 340,0 319,170 Z"/>
<path style="fill:rgb(34,149,19);fill-rule:evenodd;stroke:none;opacity:0.507509"
d="M 29,0 256,101 157,92 Z"/>
<path style="fill:rgb(152,13,90);fill-rule:evenodd;stroke:none;opacity:0.12257"
d="M 87,190 120,204 45,224 Z"/>
<path style="fill:rgb(218,235,113);fill-rule:evenodd;stroke:none;opacity:0.469922"
d="M 69,147 170,121 63,168 Z"/>
<path style="fill:rgb(177,84,161);fill-rule:evenodd;stroke:none;opacity:0.38601"
d="M 0,11 21,187 183,49 Z"/>
<path style="fill:rgb(249,83,115);fill-rule:evenodd;stroke:none;opacity:0.501722"
d="M 109,64 35,73 226,138 Z"/>
<path style="fill:rgb(151,215,171);fill-rule:evenodd;stroke:none;opacity:0.405697"
d="M 51,151 19,51 33,94 Z"/>
<path style="fill:rgb(23,198,222);fill-rule:evenodd;stroke:none;opacity:0.539142"
d="M 265,139 196,194 248,118 Z"/>
<path style="fill:rgb(204,218,184);fill-rule:evenodd;stroke:none;opacity:0.575263"
d="M 23,226 233,127 263,178 Z"/>
<path style="fill:rgb(15,129,24);fill-rule:evenodd;stroke:none;opacity:0.206849"
d="M 0,44 200,0 61,173 Z"/>
<path style="fill:rgb(201,159,250);fill-rule:evenodd;stroke:none;opacity:0"
d="M 196,122 184,148 90,9 Z"/>
<path style="fill:rgb(130,41,115);fill-rule:evenodd;stroke:none;opacity:0.165927"
d="M 123,108 56,254 94,132 Z"/>
<path style="fill:rgb(198,11,246);fill-rule:evenodd;stroke:none;opacity:0.242301"
d="M 33,177 95,237 0,202 Z"/>
<path style="fill:rgb(242,119,180);fill-rule:evenodd;stroke:none;opacity:0.224733"
d="M 56,172 232,120 202,241 Z"/>
<path style="fill:rgb(238,78,54);fill-rule:evenodd;stroke:none;opacity:0"
d="M 247,234 56,94 284,98 Z"/>
<path style="fill:rgb(118,19,130);fill-rule:evenodd;stroke:none;opacity:0.523974"
d="M 0,37 146,45 143,185 Z"/>
<path style="fill:rgb(27,255,207);fill-rule:evenodd;stroke:none;opacity:0.154325"
d="M 194,52 168,28 184,16 Z"/>
<path style="fill:rgb(166,243,195);fill-rule:evenodd;stroke:none;opacity:0.296509"
d="M 134,0 158,17 325,0 Z"/>
<path style="fill:rgb(121,194,153);fill-rule:evenodd;stroke:none;opacity:0.608067"
d="M 34,229 256,127 192,115 Z"/>
<path style="fill:rgb(210,178,223);fill-rule:evenodd;stroke:none;opacity:0.477283"
d="M 266,173 234,240 216,83 Z"/>
<path style="fill:rgb(251,193,157);fill-rule:evenodd;stroke:none;opacity:0.655367"
d="M 137,135 297,163 337,189 Z"/>
<path style="fill:rgb(0,79,94);fill-rule:evenodd;stroke:none;opacity:0.194414"
d="M 24,187 224,5 195,19 Z"/>
<path style="fill:rgb(140,26,159);fill-rule:evenodd;stroke:none;opacity:0.566739"
d="M 126,123 127,8 209,101 Z"/>
<path style="fill:rgb(124,0,75);fill-rule:evenodd;stroke:none;opacity:0.112061"
d="M 26,84 221,255 209,249 Z"/>
<path style="fill:rgb(96,34,232);fill-rule:evenodd;stroke:none;opacity:0.427959"
d="M 0,113 23,168 52,66 Z"/>
<path style="fill:rgb(172,199,255);fill-rule:evenodd;stroke:none;opacity:0.0482623"
d="M 234,111 41,59 0,116 Z"/>
<path style="fill:rgb(47,173,104);fill-rule:evenodd;stroke:none;opacity:0.453776"
d="M 115,0 87,0 136,18 Z"/>
<path style="fill:rgb(157,67,8);fill-rule:evenodd;stroke:none;opacity:0.312826"
d="M 62,17 56,175 60,8 Z"/>
<path style="fill:rgb(12,79,172);fill-rule:evenodd;stroke:none;opacity:0.549859"
d="M 11,0 174,178 63,0 Z"/>
<path style="fill:rgb(244,85,247);fill-rule:evenodd;stroke:none;opacity:0.000757457"
d="M 0,77 37,171 315,226 Z"/>
<path style="fill:rgb(102,150,153);fill-rule:evenodd;stroke:none;opacity:0.225103"
d="M 311,144 115,222 38,242 Z"/>
<path style="fill:rgb(110,220,33);fill-rule:evenodd;stroke:none;opacity:0"
d="M 82,23 37,150 21,0 Z"/>
<path style="fill:rgb(168,114,182);fill-rule:evenodd;stroke:none;opacity:0.239685"
d="M 248,68 109,109 0,141 Z"/>
<path style="fill:rgb(0,247,193);fill-rule:evenodd;stroke:none;opacity:0.0866224"
d="M 25,25 52,31 61,123 Z"/>
<path style="fill:rgb(182,83,123);fill-rule:evenodd;stroke:none;opacity:0.339101"
d="M 98,247 295,170 223,195 Z"/>
<path style="fill:rgb(135,228,49);fill-rule:evenodd;stroke:none;opacity:0.243126"
d="M 2,187 281,159 9,232 Z"/>
<path style="fill:rgb(108,172,206);fill-rule:evenodd;stroke:none;opacity:0.283735"
d="M 165,29 23,137 249,27 Z"/>
<path style="fill:rgb(234,97,161);fill-rule:evenodd;stroke:none;opacity:0.387359"
d="M 231,17 142,0 107,0 Z"/>
<path style="fill:rgb(29,155,0);fill-rule:evenodd;stroke:none;opacity:0.432939"
d="M 191,188 201,237 137,6 Z"/>
<path style="fill:rgb(197,153,108);fill-rule:evenodd;stroke:none;opacity:0.12348"
d="M 208,214 228,39 96,0 Z"/>
<path style="fill:rgb(110,0,234);fill-rule:evenodd;stroke:none;opacity:0.169531"
d="M 97,135 340,218 339,240 Z"/>
<path style="fill:rgb(24,255,201);fill-rule:evenodd;stroke:none;opacity:0.512441"
d="M 257,85 170,80 8,45 Z"/>
<path style="fill:rgb(216,185,164);fill-rule:evenodd;stroke:none;opacity:0.411423"
d="M 21,179 200,122 0,248 Z"/>
<path style="fill:rgb(36,12,198);fill-rule:evenodd;stroke:none;opacity:0.467835"
d="M 131,87 142,39 60,184 Z"/>
<path style="fill:rgb(244,244,115);fill-rule:evenodd;stroke:none;opacity:0.213875"
d="M 197,35 63,41 88,55 Z"/>
<path style="fill:rgb(234,46,92);fill-rule:evenodd;stroke:none;opacity:0.116456"
d="M 0,50 156,252 12,237 Z"/>
<path style="fill:rgb(81,99,15);fill-rule:evenodd;stroke:none;opacity:0.144327"
d="M 293,197 309,218 296,252 Z"/>
<path style="fill:rgb(24,180,185);fill-rule:evenodd;stroke:none;opacity:0"
d="M 54,135 227,217 193,194 Z"/>
<path style="fill:rgb(54,168,195);fill-rule:evenodd;stroke:none;opacity:0.207784"
d="M 225,68 185,248 38,63 Z"/>
<path style="fill:rgb(156,167,182);fill-rule:evenodd;stroke:none;opacity:0.170997"
d="M 226,111 253,69 106,90 Z"/>
<path style="fill:rgb(174,91,72);fill-rule:evenodd;stroke:none;opacity:0.439652"
d="M 242,255 191,290 289,107 Z"/>
<path style="fill:rgb(155,168,141);fill-rule:evenodd;stroke:none;opacity:0.36983"
d="M 251,124 229,255 167,255 Z"/>
<path style="fill:rgb(124,137,71);fill-rule:evenodd;stroke:none;opacity:0.296828"
d="M 276,136 187,88 226,31 Z"/>
<path style="fill:rgb(86,192,134);fill-rule:evenodd;stroke:none;opacity:0.191325"
d="M 142,103 192,231 56,255 Z"/>
<path style="fill:rgb(197,106,72);fill-rule:evenodd;stroke:none;opacity:0.242486"
d="M 110,45 202,240 177,191 Z"/>
<path style="fill:rgb(62,125,27);fill-rule:evenodd;stroke:none;opacity:0.257081"
d="M 226,49 150,109 130,4 Z"/>
<path style="fill:rgb(82,96,215);fill-rule:evenodd;stroke:none;opacity:0.0378817"
d="M 174,52 281,30 216,205 Z"/>
<path style="fill:rgb(30,204,183);fill-rule:evenodd;stroke:none;opacity:0.111938"
d="M 68,143 204,229 256,175 Z"/>
<path style="fill:rgb(255,229,18);fill-rule:evenodd;stroke:none;opacity:0.179924"
d="M 94,70 130,137 40,169 Z"/>
<path style="fill:rgb(87,235,45);fill-rule:evenodd;stroke:none;opacity:0.215657"
d="M 67,84 33,172 327,212 Z"/>
<path style="fill:rgb(79,223,255);fill-rule:evenodd;stroke:none;opacity:0.431403"
d="M 3,217 12,215 0,65 Z"/>
<path style="fill:rgb(213,233,37);fill-rule:evenodd;stroke:none;opacity:0.22752"
d="M 140,181 275,39 299,6 Z"/>
<path style="fill:rgb(164,93,155);fill-rule:evenodd;stroke:none;opacity:0.204215"
d="M 151,68 0,31 132,148 Z"/>
<path style="fill:rgb(149,117,214);fill-rule:evenodd;stroke:none;opacity:0.146012"
d="M 195,81 179,172 148,246 Z"/>
<path style="fill:rgb(121,255,122);fill-rule:evenodd;stroke:none;opacity:0.589207"
d="M 122,223 185,77 147,27 Z"/>
<path style="fill:rgb(194,227,37);fill-rule:evenodd;stroke:none;opacity:0.560308"
d="M 209,43 153,83 145,43 Z"/>
<path style="fill:rgb(244,255,237);fill-rule:evenodd;stroke:none;opacity:0.309856"
d="M 329,15 220,137 251,202 Z"/>
<path style="fill:rgb(69,192,82);fill-rule:evenodd;stroke:none;opacity:0.507668"
d="M 0,232 21,246 0,218 Z"/>
<path style="fill:rgb(227,71,200);fill-rule:evenodd;stroke:none;opacity:0.575805"
d="M 248,110 143,1 218,114 Z"/>
<path style="fill:rgb(20,179,176);fill-rule:evenodd;stroke:none;opacity:0.235058"
d="M 53,54 55,80 163,229 Z"/>
<path style="fill:rgb(141,205,190);fill-rule:evenodd;stroke:none;opacity:0.366125"
d="M 214,56 207,151 137,96 Z"/>
<path style="fill:rgb(209,255,101);fill-rule:evenodd;stroke:none;opacity:0.495681"
d="M 222,12 137,164 225,45 Z"/>
<path style="fill:rgb(240,221,89);fill-rule:evenodd;stroke:none;opacity:0.245141"
d="M 80,60 1,246 122,135 Z"/>
<path style="fill:rgb(93,159,208);fill-rule:evenodd;stroke:none;opacity:0.259067"
d="M 232,38 166,48 56,114 Z"/>
<path style="fill:rgb(66,127,8);fill-rule:evenodd;stroke:none;opacity:0.0862519"
d="M 178,108 144,65 33,142 Z"/>
<path style="fill:rgb(123,162,127);fill-rule:evenodd;stroke:none;opacity:0.55228"
d="M 116,161 286,215 237,255 Z"/>
<path style="fill:rgb(55,147,65);fill-rule:evenodd;stroke:none;opacity:0.188571"
d="M 321,196 340,180 250,117 Z"/>
<path style="fill:rgb(70,188,212);fill-rule:evenodd;stroke:none;opacity:0.523173"
d="M 250,189 198,51 154,195 Z"/>
<path style="fill:rgb(159,253,85);fill-rule:evenodd;stroke:none;opacity:0.496464"
d="M 330,112 312,26 279,79 Z"/>
<path style="fill:rgb(87,121,184);fill-rule:evenodd;stroke:none;opacity:0"
d="M 89,59 193,170 180,38 Z"/>
<path style="fill:rgb(170,227,39);fill-rule:evenodd;stroke:none;opacity:0.0474686"
d="M 60,32 27,255 263,177 Z"/>
<path style="fill:rgb(118,108,255);fill-rule:evenodd;stroke:none;opacity:0.240146"
d="M 166,161 0,254 200,156 Z"/>
<path style="fill:rgb(109,186,174);fill-rule:evenodd;stroke:none;opacity:0.46014"
d="M 254,99 149,178 54,51 Z"/>
<path style="fill:rgb(194,144,124);fill-rule:evenodd;stroke:none;opacity:0.254598"
d="M 171,244 265,175 115,150 Z"/>
<path style="fill:rgb(118,0,154);fill-rule:evenodd;stroke:none;opacity:0.120758"
d="M 97,237 178,73 151,248 Z"/>
<path style="fill:rgb(63,0,9);fill-rule:evenodd;stroke:none;opacity:0.491307"
d="M 248,179 281,65 163,142 Z"/>
<path style="fill:rgb(212,204,224);fill-rule:evenodd;stroke:none;opacity:0.401258"
d="M 77,164 177,36 0,16 Z"/>
<path style="fill:rgb(91,95,66);fill-rule:evenodd;stroke:none;opacity:0.376709"
d="M 230,35 210,0 214,102 Z"/>
<path style="fill:rgb(11,147,203);fill-rule:evenodd;stroke:none;opacity:0.333528"
d="M 260,203 88,97 159,139 Z"/>
<path style="fill:rgb(14,118,134);fill-rule:evenodd;stroke:none;opacity:0.149942"
d="M 189,12 288,148 277,142 Z"/>
<path style="fill:rgb(42,87,51);fill-rule:evenodd;stroke:none;opacity:0.209727"
d="M 77,254 59,195 226,233 Z"/>
<path style="fill:rgb(179,58,209);fill-rule:evenodd;stroke:none;opacity:0.566769"
d="M 282,4 70,39 0,155 Z"/>
<path style="fill:rgb(184,0,31);fill-rule:evenodd;stroke:none;opacity:0.295991"
d="M 235,176 140,176 16,170 Z"/>
<path style="fill:rgb(224,86,106);fill-rule:evenodd;stroke:none;opacity:0.295197"
d="M 0,153 26,70 85,40 Z"/>
<path style="fill:rgb(110,89,23);fill-rule:evenodd;stroke:none;opacity:0.365512"
d="M 48,9 263,94 88,96 Z"/>
<path style="fill:rgb(208,173,226);fill-rule:evenodd;stroke:none;opacity:0.640507"
d="M 256,131 271,223 295,226 Z"/>
<path style="fill:rgb(6,205,244);fill-rule:evenodd;stroke:none;opacity:0.409523"
d="M 272,137 44,56 157,25 Z"/>
<path style="fill:rgb(93,178,186);fill-rule:evenodd;stroke:none;opacity:0.0942116"
d="M 282,133 340,130 146,125 Z"/>
<path style="fill:rgb(121,146,202);fill-rule:evenodd;stroke:none;opacity:0.174634"
d="M 43,2 108,23 318,79 Z"/>
<path style="fill:rgb(216,184,8);fill-rule:evenodd;stroke:none;opacity:0.229504"
d="M 0,196 85,65 0,95 Z"/>
<path style="fill:rgb(43,67,26);fill-rule:evenodd;stroke:none;opacity:0.242888"
d="M 54,62 92,26 257,0 Z"/>
<path style="fill:rgb(254,255,255);fill-rule:evenodd;stroke:none;opacity:0.890973"
d="M 307,104 168,1 340,0 Z"/>
<path style="fill:rgb(62,89,217);fill-rule:evenodd;stroke:none;opacity:0.169767"
d="M 98,39 124,56 163,175 Z"/>
<path style="fill:rgb(82,160,207);fill-rule:evenodd;stroke:none;opacity:0.611625"
d="M 98,2 254,220 239,184 Z"/>
<path style="fill:rgb(125,168,191);fill-rule:evenodd;stroke:none;opacity:0.140338"
d="M 222,88 140,129 165,108 Z"/>
<path style="fill:rgb(255,231,149);fill-rule:evenodd;stroke:none;opacity:0.355164"
d="M 239,12 174,78 108,27 Z"/>
<path style="fill:rgb(227,227,206);fill-rule:evenodd;stroke:none;opacity:0.374652"
d="M 211,49 103,247 43,252 Z"/>
<path style="fill:rgb(54,13,148);fill-rule:evenodd;stroke:none;opacity:0.470704"
d="M 24,161 148,199 84,175 Z"/>
<path style="fill:rgb(113,44,30);fill-rule:evenodd;stroke:none;opacity:0.682842"
d="M 68,173 225,199 222,49 Z"/>
<path style="fill:rgb(166,27,0);fill-rule:evenodd;stroke:none;opacity:0.217706"
d="M 93,177 53,203 189,45 Z"/>
<path style="fill:rgb(225,178,100);fill-rule:evenodd;stroke:none;opacity:0.363457"
d="M 229,195 140,23 340,194 Z"/>
<path style="fill:rgb(90,90,152);fill-rule:evenodd;stroke:none;opacity:0.521472"
d="M 7,36 186,16 186,38 Z"/>
<path style="fill:rgb(112,255,67);fill-rule:evenodd;stroke:none;opacity:0.0407984"
d="M 276,96 213,0 100,46 Z"/>
<path style="fill:rgb(205,185,184);fill-rule:evenodd;stroke:none;opacity:0.723118"
d="M 230,0 49,61 78,132 Z"/>
<path style="fill:rgb(255,255,255);fill-rule:evenodd;stroke:none;opacity:0.970624"
d="M 0,59 114,0 0,0 Z"/>
<path style="fill:rgb(109,193,110);fill-rule:evenodd;stroke:none;opacity:0.500531"
d="M 56,216 47,255 67,157 Z"/>
<path style="fill:rgb(221,255,213);fill-rule:evenodd;stroke:none;opacity:0.269107"
d="M 0,255 214,115 133,6 Z"/>
<path style="fill:rgb(161,132,109);fill-rule:evenodd;stroke:none;opacity:0.584093"
d="M 13,255 57,173 187,255 Z"/>
<path style="fill:rgb(80,149,102);fill-rule:evenodd;stroke:none;opacity:0.450773"
d="M 42,128 44,132 132,24 Z"/>
<path style="fill:rgb(224,244,52);fill-rule:evenodd;stroke:none;opacity:0.528577"
d="M 103,238 125,168 26,116 Z"/>
<path style="fill:rgb(202,221,224);fill-rule:evenodd;stroke:none;opacity:0.22602"
d="M 0,137 49,41 57,27 Z"/>
<path style="fill:rgb(200,188,193);fill-rule:evenodd;stroke:none;opacity:0.308183"
d="M 77,226 154,255 75,91 Z"/>
<path style="fill:rgb(206,236,185);fill-rule:evenodd;stroke:none;opacity:0.469105"
d="M 41,6 214,161 8,43 Z"/>
<path style="fill:rgb(126,148,112);fill-rule:evenodd;stroke:none;opacity:0.215215"
d="M 250,115 274,76 79,158 Z"/>
<path style="fill:rgb(237,213,20);fill-rule:evenodd;stroke:none;opacity:0.326621"
d="M 138,23 142,40 0,63 Z"/>
<path style="fill:rgb(185,148,227);fill-rule:evenodd;stroke:none;opacity:0.32884"
d="M 57,68 17,178 138,205 Z"/>
<path style="fill:rgb(17,0,38);fill-rule:evenodd;stroke:none;opacity:0.591995"
d="M 9,86 214,0 89,26 Z"/>
<path style="fill:rgb(142,6,34);fill-rule:evenodd;stroke:none;opacity:0.395591"
d="M 76,21 7,85 61,123 Z"/>
<path style="fill:rgb(54,0,90);fill-rule:evenodd;stroke:none;opacity:0.349804"
d="M 276,98 136,219 200,52 Z"/>
<path style="fill:rgb(255,255,253);fill-rule:evenodd;stroke:none;opacity:0.694753"
d="M 167,60 0,255 0,0 Z"/>
<path style="fill:rgb(119,214,176);fill-rule:evenodd;stroke:none;opacity:0.169273"
d="M 72,208 0,219 13,20 Z"/>
<path style="fill:rgb(252,255,255);fill-rule:evenodd;stroke:none;opacity:0.430533"
d="M 0,0 337,0 0,155 Z"/>
<path style="fill:rgb(206,52,76);fill-rule:evenodd;stroke:none;opacity:0.105105"
d="M 254,88 171,113 92,130 Z"/>
<path style="fill:rgb(196,229,177);fill-rule:evenodd;stroke:none;opacity:0.481584"
d="M 23,112 23,255 172,304 Z"/>
<path style="fill:rgb(241,217,202);fill-rule:evenodd;stroke:none;opacity:0.388148"
d="M 132,30 223,84 226,221 Z"/>
<path style="fill:rgb(41,116,202);fill-rule:evenodd;stroke:none;opacity:0.432818"
d="M 204,181 176,191 229,77 Z"/>
<path style="fill:rgb(255,253,255);fill-rule:evenodd;stroke:none;opacity:0.955742"
d="M 340,255 203,209 340,0 Z"/>
<path style="fill:rgb(109,118,74);fill-rule:evenodd;stroke:none;opacity:0.297781"
d="M 136,255 111,111 276,139 Z"/>
<path style="fill:rgb(203,57,222);fill-rule:evenodd;stroke:none;opacity:0.10941"
d="M 140,100 225,13 120,116 Z"/>
<path style="fill:rgb(0,192,242);fill-rule:evenodd;stroke:none;opacity:0"
d="M 63,255 0,234 111,248 Z"/>
<path style="fill:rgb(192,91,9);fill-rule:evenodd;stroke:none;opacity:0.354562"
d="M 0,213 198,91 22,198 Z"/>
<path style="fill:rgb(178,255,238);fill-rule:evenodd;stroke:none;opacity:0.273533"
d="M 71,182 60,113 3,114 Z"/>
<path style="fill:rgb(63,48,48);fill-rule:evenodd;stroke:none;opacity:0.769418"
d="M 57,34 178,-21 61,67 Z"/>
<path style="fill:rgb(246,216,255);fill-rule:evenodd;stroke:none;opacity:0.488181"
d="M 94,126 167,208 0,249 Z"/>
<path style="fill:rgb(232,246,255);fill-rule:evenodd;stroke:none;opacity:0.418576"
d="M 252,21 224,189 112,0 Z"/>
<path style="fill:rgb(135,173,219);fill-rule:evenodd;stroke:none;opacity:0.247957"
d="M 210,234 271,152 162,115 Z"/>
<path style="fill:rgb(53,76,59);fill-rule:evenodd;stroke:none;opacity:0.130668"
d="M 16,181 103,219 151,255 Z"/>
<path style="fill:rgb(97,105,166);fill-rule:evenodd;stroke:none;opacity:0.142029"
d="M 54,240 87,210 40,147 Z"/>
<path style="fill:rgb(179,63,0);fill-rule:evenodd;stroke:none;opacity:0.138505"
d="M 157,19 167,14 189,0 Z"/>
<path style="fill:rgb(22,0,0);fill-rule:evenodd;stroke:none;opacity:0.154529"
d="M 135,36 124,54 27,-62 Z"/>
<path style="fill:rgb(68,60,88);fill-rule:evenodd;stroke:none;opacity:0.376877"
d="M 166,255 245,187 136,165 Z"/>
<path style="fill:rgb(236,230,239);fill-rule:evenodd;stroke:none;opacity:0.534693"
d="M 286,251 234,254 182,62 Z"/>
<path style="fill:rgb(255,255,253);fill-rule:evenodd;stroke:none;opacity:0.618575"
d="M 0,255 205,154 -35,23 Z"/>
<path style="fill:rgb(255,255,255);fill-rule:evenodd;stroke:none;opacity:0.838513"
d="M 119,0 152,175 340,0 Z"/>
<path style="fill:rgb(228,69,106);fill-rule:evenodd;stroke:none;opacity:0.260184"
d="M 296,253 152,104 268,224 Z"/>
<path style="fill:rgb(135,130,111);fill-rule:evenodd;stroke:none;opacity:0.435559"
d="M 172,35 273,220 145,223 Z"/>
<path style="fill:rgb(94,72,85);fill-rule:evenodd;stroke:none;opacity:0.266289"
d="M 242,112 238,260 100,122 Z"/>
<path style="fill:rgb(217,104,216);fill-rule:evenodd;stroke:none;opacity:0.290703"
d="M 81,-74 30,31 48,0 Z"/>
<path style="fill:rgb(104,94,76);fill-rule:evenodd;stroke:none;opacity:0.534733"
d="M 276,120 123,17 149,190 Z"/>
<path style="fill:rgb(47,38,34);fill-rule:evenodd;stroke:none;opacity:0.697729"
d="M 112,42 126,5 233,149 Z"/>
<path style="fill:rgb(255,255,255);fill-rule:evenodd;stroke:none;opacity:0.903378"
d="M -41,255 136,255 32,28 Z"/>
<path style="fill:rgb(47,20,128);fill-rule:evenodd;stroke:none;opacity:0"
d="M 35,0 148,36 274,49 Z"/>
<path style="fill:rgb(255,255,249);fill-rule:evenodd;stroke:none;opacity:0.327023"
d="M 183,0 161,17 145,160 Z"/>
</svg>
