<svg viewBox="0 0 300 300">
<rect width="300" height="300" style="fill:rgb(0,0,0);" />
<path style="fill:rgb(221,181,60);fill-rule:evenodd;stroke:none;opacity:0"
d="M 215,234 326,360 181,214 Z"/>
<path style="fill:rgb(255,36,190);fill-rule:evenodd;stroke:none;opacity:0.000116114"
d="M 349,-15 165,-60 100,-48 Z"/>
<path style="fill:rgb(132,213,151);fill-rule:evenodd;stroke:none;opacity:0.218756"
d="M 322,344 117,336 139,329 Z"/>
<path style="fill:rgb(80,150,52);fill-rule:evenodd;stroke:none;opacity:0.0493882"
d="M 264,328 174,161 213,8 Z"/>
<path style="fill:rgb(118,140,255);fill-rule:evenodd;stroke:none;opacity:1"
d="M 256,84 47,235 -10,-1 Z"/>
<path style="fill:rgb(28,0,85);fill-rule:evenodd;stroke:none;opacity:0"
d="M 193,136 2,266 159,208 Z"/>
<path style="fill:rgb(5,109,183);fill-rule:evenodd;stroke:none;opacity:0.384839"
d="M 165,183 227,-45 180,95 Z"/>
<path style="fill:rgb(218,0,36);fill-rule:evenodd;stroke:none;opacity:0.907633"
d="M 73,83 298,-10 290,227 Z"/>
<path style="fill:rgb(169,36,160);fill-rule:evenodd;stroke:none;opacity:0.907222"
d="M 153,-3 181,125 158,-15 Z"/>
<path style="fill:rgb(76,59,115);fill-rule:evenodd;stroke:none;opacity:0.268518"
d="M 340,176 170,152 -10,114 Z"/>
<path style="fill:rgb(97,70,40);fill-rule:evenodd;stroke:none;opacity:0.463725"
d="M 267,-3 246,216 116,-46 Z"/>
<path style="fill:rgb(194,216,107);fill-rule:evenodd;stroke:none;opacity:0.830227"
d="M 360,208 181,185 349,94 Z"/>
<path style="fill:rgb(38,150,87);fill-rule:evenodd;stroke:none;opacity:0.460462"
d="M 93,183 176,59 354,215 Z"/>
<path style="fill:rgb(0,147,157);fill-rule:evenodd;stroke:none;opacity:0.711459"
d="M 270,-56 -49,48 79,-43 Z"/>
<path style="fill:rgb(189,11,143);fill-rule:evenodd;stroke:none;opacity:0.363833"
d="M 119,104 34,288 226,203 Z"/>
<path style="fill:rgb(232,116,148);fill-rule:evenodd;stroke:none;opacity:0.67287"
d="M 305,116 136,74 360,-27 Z"/>
<path style="fill:rgb(20,191,154);fill-rule:evenodd;stroke:none;opacity:0.145569"
d="M 219,173 330,60 200,93 Z"/>
<path style="fill:rgb(32,25,157);fill-rule:evenodd;stroke:none;opacity:0.957354"
d="M 192,198 180,349 -6,327 Z"/>
<path style="fill:rgb(48,253,108);fill-rule:evenodd;stroke:none;opacity:1"
d="M 257,30 2,170 203,21 Z"/>
<path style="fill:rgb(41,105,149);fill-rule:evenodd;stroke:none;opacity:0.0363095"
d="M 218,70 179,69 -33,309 Z"/>
<path style="fill:rgb(0,53,143);fill-rule:evenodd;stroke:none;opacity:0.928226"
d="M 301,359 4,242 -21,271 Z"/>
<path style="fill:rgb(79,0,45);fill-rule:evenodd;stroke:none;opacity:0.117445"
d="M 201,43 36,-20 321,35 Z"/>
<path style="fill:rgb(246,203,60);fill-rule:evenodd;stroke:none;opacity:0.474343"
d="M 192,135 157,123 341,188 Z"/>
<path style="fill:rgb(40,151,239);fill-rule:evenodd;stroke:none;opacity:0.451057"
d="M 18,44 99,-1 284,120 Z"/>
<path style="fill:rgb(95,51,138);fill-rule:evenodd;stroke:none;opacity:0.297132"
d="M 125,208 -40,45 146,-7 Z"/>
<path style="fill:rgb(191,140,114);fill-rule:evenodd;stroke:none;opacity:0.169873"
d="M 160,162 109,118 323,280 Z"/>
<path style="fill:rgb(239,137,91);fill-rule:evenodd;stroke:none;opacity:0.104292"
d="M -60,-60 278,-60 95,58 Z"/>
<path style="fill:rgb(217,198,230);fill-rule:evenodd;stroke:none;opacity:0.0467397"
d="M 129,149 78,360 195,168 Z"/>
<path style="fill:rgb(0,85,153);fill-rule:evenodd;stroke:none;opacity:0"
d="M 242,341 284,-60 274,201 Z"/>
<path style="fill:rgb(248,219,27);fill-rule:evenodd;stroke:none;opacity:0.407161"
d="M 360,-2 311,275 341,1 Z"/>
<path style="fill:rgb(44,250,229);fill-rule:evenodd;stroke:none;opacity:0.809063"
d="M -40,308 86,139 272,155 Z"/>
<path style="fill:rgb(138,165,85);fill-rule:evenodd;stroke:none;opacity:0.185424"
d="M 259,94 72,-24 124,81 Z"/>
<path style="fill:rgb(246,236,255);fill-rule:evenodd;stroke:none;opacity:0.0892002"
d="M 311,95 37,217 -58,141 Z"/>
<path style="fill:rgb(89,8,52);fill-rule:evenodd;stroke:none;opacity:0.267115"
d="M -16,170 200,208 192,231 Z"/>
<path style="fill:rgb(144,62,91);fill-rule:evenodd;stroke:none;opacity:0.803336"
d="M 0,176 150,-44 69,127 Z"/>
<path style="fill:rgb(20,17,220);fill-rule:evenodd;stroke:none;opacity:0.226495"
d="M 253,231 226,21 50,97 Z"/>
<path style="fill:rgb(0,113,237);fill-rule:evenodd;stroke:none;opacity:0.205532"
d="M 86,-19 225,207 156,156 Z"/>
<path style="fill:rgb(51,205,12);fill-rule:evenodd;stroke:none;opacity:0.0685989"
d="M 193,-7 159,119 92,151 Z"/>
<path style="fill:rgb(206,255,153);fill-rule:evenodd;stroke:none;opacity:0.426458"
d="M 290,107 121,299 51,98 Z"/>
<path style="fill:rgb(226,89,255);fill-rule:evenodd;stroke:none;opacity:0.719461"
d="M 217,184 -18,139 124,67 Z"/>
<path style="fill:rgb(156,55,25);fill-rule:evenodd;stroke:none;opacity:0.773703"
d="M 175,234 232,-45 256,251 Z"/>
<path style="fill:rgb(194,183,86);fill-rule:evenodd;stroke:none;opacity:0.147519"
d="M 268,-60 -4,143 -60,-23 Z"/>
<path style="fill:rgb(64,0,65);fill-rule:evenodd;stroke:none;opacity:0.284498"
d="M 205,249 81,220 29,342 Z"/>
<path style="fill:rgb(245,235,159);fill-rule:evenodd;stroke:none;opacity:0.0859321"
d="M 215,224 63,289 205,167 Z"/>
<path style="fill:rgb(205,110,122);fill-rule:evenodd;stroke:none;opacity:0.0709158"
d="M 170,137 178,49 122,25 Z"/>
<path style="fill:rgb(218,63,100);fill-rule:evenodd;stroke:none;opacity:0.0154251"
d="M 264,-60 307,194 -42,62 Z"/>
<path style="fill:rgb(0,6,132);fill-rule:evenodd;stroke:none;opacity:0.208095"
d="M 217,214 -57,162 358,164 Z"/>
<path style="fill:rgb(184,28,153);fill-rule:evenodd;stroke:none;opacity:0.82842"
d="M 16,300 13,156 -54,346 Z"/>
<path style="fill:rgb(247,255,49);fill-rule:evenodd;stroke:none;opacity:0.047257"
d="M 244,225 134,-39 121,257 Z"/>
<path style="fill:rgb(19,174,106);fill-rule:evenodd;stroke:none;opacity:0"
d="M 3,24 -46,262 57,158 Z"/>
<path style="fill:rgb(27,119,121);fill-rule:evenodd;stroke:none;opacity:0.627525"
d="M 214,-19 264,82 305,185 Z"/>
<path style="fill:rgb(27,154,136);fill-rule:evenodd;stroke:none;opacity:0.0535927"
d="M -60,160 229,360 -31,26 Z"/>
<path style="fill:rgb(83,126,164);fill-rule:evenodd;stroke:none;opacity:0.321338"
d="M 145,11 165,181 -43,343 Z"/>
<path style="fill:rgb(103,22,158);fill-rule:evenodd;stroke:none;opacity:0.242206"
d="M -37,152 95,352 71,-24 Z"/>
<path style="fill:rgb(40,180,52);fill-rule:evenodd;stroke:none;opacity:0.155551"
d="M 124,-29 322,47 223,260 Z"/>
<path style="fill:rgb(60,235,165);fill-rule:evenodd;stroke:none;opacity:0.325887"
d="M 240,11 350,198 342,185 Z"/>
<path style="fill:rgb(175,48,155);fill-rule:evenodd;stroke:none;opacity:0.115902"
d="M 220,35 78,83 -23,98 Z"/>
<path style="fill:rgb(91,122,144);fill-rule:evenodd;stroke:none;opacity:0.260782"
d="M 158,-34 277,120 206,294 Z"/>
<path style="fill:rgb(197,0,77);fill-rule:evenodd;stroke:none;opacity:0.148984"
d="M 259,209 293,237 69,230 Z"/>
<path style="fill:rgb(64,251,31);fill-rule:evenodd;stroke:none;opacity:1"
d="M 238,45 329,-5 263,-24 Z"/>
<path style="fill:rgb(24,91,255);fill-rule:evenodd;stroke:none;opacity:0.524968"
d="M 90,183 -44,23 -60,-60 Z"/>
<path style="fill:rgb(28,60,43);fill-rule:evenodd;stroke:none;opacity:0.632887"
d="M 284,35 45,219 88,70 Z"/>
<path style="fill:rgb(179,228,157);fill-rule:evenodd;stroke:none;opacity:0.157458"
d="M 236,-38 83,63 97,138 Z"/>
<path style="fill:rgb(189,18,181);fill-rule:evenodd;stroke:none;opacity:0.698016"
d="M -45,-26 301,113 164,-60 Z"/>
<path style="fill:rgb(14,0,225);fill-rule:evenodd;stroke:none;opacity:1"
d="M -2,235 47,147 -19,-34 Z"/>
<path style="fill:rgb(60,243,160);fill-rule:evenodd;stroke:none;opacity:0.0627826"
d="M 231,216 286,218 -19,271 Z"/>
<path style="fill:rgb(111,116,0);fill-rule:evenodd;stroke:none;opacity:0.178997"
d="M 49,219 203,259 294,260 Z"/>
<path style="fill:rgb(56,108,162);fill-rule:evenodd;stroke:none;opacity:0.578354"
d="M 156,222 179,309 217,119 Z"/>
<path style="fill:rgb(175,101,255);fill-rule:evenodd;stroke:none;opacity:0.394574"
d="M 281,185 157,12 250,124 Z"/>
<path style="fill:rgb(232,0,179);fill-rule:evenodd;stroke:none;opacity:0.344584"
d="M -19,242 54,-43 54,67 Z"/>
<path style="fill:rgb(203,61,207);fill-rule:evenodd;stroke:none;opacity:0"
d="M 279,198 56,208 209,87 Z"/>
<path style="fill:rgb(111,194,164);fill-rule:evenodd;stroke:none;opacity:1"
d="M 158,178 29,95 341,1 Z"/>
<path style="fill:rgb(233,147,55);fill-rule:evenodd;stroke:none;opacity:0.49318"
d="M -60,92 229,270 32,-57 Z"/>
<path style="fill:rgb(239,6,0);fill-rule:evenodd;stroke:none;opacity:0.829562"
d="M 360,291 52,-27 65,14 Z"/>
<path style="fill:rgb(12,91,55);fill-rule:evenodd;stroke:none;opacity:0.806793"
d="M -60,42 235,2 62,164 Z"/>
<path style="fill:rgb(0,231,196);fill-rule:evenodd;stroke:none;opacity:0.722259"
d="M 97,62 180,198 88,137 Z"/>
<path style="fill:rgb(8,88,169);fill-rule:evenodd;stroke:none;opacity:0.681053"
d="M 331,14 -36,218 281,160 Z"/>
<path style="fill:rgb(76,61,254);fill-rule:evenodd;stroke:none;opacity:0.135141"
d="M 335,-22 199,-25 285,31 Z"/>
<path style="fill:rgb(61,213,108);fill-rule:evenodd;stroke:none;opacity:0.28082"
d="M 253,243 154,149 153,223 Z"/>
<path style="fill:rgb(125,180,200);fill-rule:evenodd;stroke:none;opacity:0.161647"
d="M -38,189 257,39 -38,-48 Z"/>
<path style="fill:rgb(125,56,24);fill-rule:evenodd;stroke:none;opacity:0.707992"
d="M 116,26 7,46 360,290 Z"/>
<path style="fill:rgb(225,206,70);fill-rule:evenodd;stroke:none;opacity:0.190784"
d="M 126,137 163,-38 118,-19 Z"/>
<path style="fill:rgb(34,117,49);fill-rule:evenodd;stroke:none;opacity:0.602889"
d="M 99,280 265,203 250,346 Z"/>
<path style="fill:rgb(81,123,18);fill-rule:evenodd;stroke:none;opacity:0.0965767"
d="M 146,184 -10,56 165,31 Z"/>
<path style="fill:rgb(39,141,54);fill-rule:evenodd;stroke:none;opacity:0.238458"
d="M -1,210 -38,60 29,71 Z"/>
<path style="fill:rgb(238,244,32);fill-rule:evenodd;stroke:none;opacity:0.10128"
d="M -7,26 -49,280 -34,160 Z"/>
<path style="fill:rgb(199,134,132);fill-rule:evenodd;stroke:none;opacity:0.234011"
d="M 332,267 200,184 130,86 Z"/>
<path style="fill:rgb(137,212,88);fill-rule:evenodd;stroke:none;opacity:0.261539"
d="M 46,254 233,338 124,46 Z"/>
<path style="fill:rgb(116,23,125);fill-rule:evenodd;stroke:none;opacity:0.546732"
d="M -18,340 160,245 124,244 Z"/>
<path style="fill:rgb(212,29,10);fill-rule:evenodd;stroke:none;opacity:0.219119"
d="M -59,338 158,16 283,300 Z"/>
<path style="fill:rgb(106,7,24);fill-rule:evenodd;stroke:none;opacity:0"
d="M -30,31 290,54 96,66 Z"/>
<path style="fill:rgb(152,13,255);fill-rule:evenodd;stroke:none;opacity:0.419739"
d="M 194,132 76,-35 -60,-60 Z"/>
<path style="fill:rgb(213,85,202);fill-rule:evenodd;stroke:none;opacity:0.357926"
d="M 186,-25 159,53 -2,109 Z"/>
<path style="fill:rgb(34,107,21);fill-rule:evenodd;stroke:none;opacity:0.874316"
d="M 91,-60 -57,-32 245,-60 Z"/>
<path style="fill:rgb(176,60,255);fill-rule:evenodd;stroke:none;opacity:0.128471"
d="M 203,64 246,-23 -47,161 Z"/>
<path style="fill:rgb(198,215,201);fill-rule:evenodd;stroke:none;opacity:0.466155"
d="M 53,206 11,210 -8,70 Z"/>
<path style="fill:rgb(238,247,116);fill-rule:evenodd;stroke:none;opacity:0.219364"
d="M 141,243 39,291 168,62 Z"/>
<path style="fill:rgb(192,49,255);fill-rule:evenodd;stroke:none;opacity:0.204836"
d="M 143,22 148,133 108,-46 Z"/>
<path style="fill:rgb(140,251,6);fill-rule:evenodd;stroke:none;opacity:0.980433"
d="M 354,177 164,81 317,216 Z"/>
<path style="fill:rgb(66,174,17);fill-rule:evenodd;stroke:none;opacity:0.320703"
d="M 97,154 162,163 -34,203 Z"/>
<path style="fill:rgb(210,3,255);fill-rule:evenodd;stroke:none;opacity:0.16187"
d="M 116,268 360,116 299,44 Z"/>
<path style="fill:rgb(42,255,116);fill-rule:evenodd;stroke:none;opacity:0.639255"
d="M 125,184 289,235 111,67 Z"/>
<path style="fill:rgb(31,226,235);fill-rule:evenodd;stroke:none;opacity:0.249586"
d="M 39,226 162,360 182,165 Z"/>
<path style="fill:rgb(225,9,255);fill-rule:evenodd;stroke:none;opacity:0.78489"
d="M 113,-9 248,33 -46,-48 Z"/>
<path style="fill:rgb(121,48,108);fill-rule:evenodd;stroke:none;opacity:0.196324"
d="M 202,140 -38,137 261,178 Z"/>
<path style="fill:rgb(126,255,131);fill-rule:evenodd;stroke:none;opacity:0.236515"
d="M 344,-9 291,17 337,293 Z"/>
<path style="fill:rgb(138,106,6);fill-rule:evenodd;stroke:none;opacity:0.108685"
d="M 235,91 152,-42 269,102 Z"/>
<path style="fill:rgb(30,248,64);fill-rule:evenodd;stroke:none;opacity:0.631887"
d="M -14,155 102,-60 151,-44 Z"/>
<path style="fill:rgb(95,90,0);fill-rule:evenodd;stroke:none;opacity:0.336224"
d="M 232,133 223,21 343,94 Z"/>
<path style="fill:rgb(108,93,38);fill-rule:evenodd;stroke:none;opacity:0.921152"
d="M 277,21 172,116 180,-14 Z"/>
<path style="fill:rgb(123,213,170);fill-rule:evenodd;stroke:none;opacity:0.589082"
d="M 50,32 217,268 36,213 Z"/>
<path style="fill:rgb(0,192,78);fill-rule:evenodd;stroke:none;opacity:0.0862435"
d="M 122,237 125,-42 -60,236 Z"/>
<path style="fill:rgb(164,116,8);fill-rule:evenodd;stroke:none;opacity:0.188882"
d="M 123,218 188,-52 -19,102 Z"/>
<path style="fill:rgb(255,74,222);fill-rule:evenodd;stroke:none;opacity:0.0286821"
d="M 224,147 104,185 314,196 Z"/>
<path style="fill:rgb(185,86,248);fill-rule:evenodd;stroke:none;opacity:0.383218"
d="M 242,30 317,248 322,249 Z"/>
<path style="fill:rgb(222,255,184);fill-rule:evenodd;stroke:none;opacity:0.824747"
d="M -32,344 58,78 -34,244 Z"/>
<path style="fill:rgb(140,58,216);fill-rule:evenodd;stroke:none;opacity:0.698294"
d="M 43,282 55,323 158,237 Z"/>
<path style="fill:rgb(47,49,0);fill-rule:evenodd;stroke:none;opacity:0.343428"
d="M 176,267 -25,279 304,272 Z"/>
<path style="fill:rgb(255,181,137);fill-rule:evenodd;stroke:none;opacity:0.262828"
d="M 325,274 15,66 227,98 Z"/>
<path style="fill:rgb(147,0,43);fill-rule:evenodd;stroke:none;opacity:0.461692"
d="M 86,222 177,-14 229,-35 Z"/>
<path style="fill:rgb(140,162,248);fill-rule:evenodd;stroke:none;opacity:0.5186"
d="M 54,188 133,-12 -60,223 Z"/>
<path style="fill:rgb(108,54,18);fill-rule:evenodd;stroke:none;opacity:0.530012"
d="M 270,241 320,309 318,64 Z"/>
<path style="fill:rgb(24,45,44);fill-rule:evenodd;stroke:none;opacity:0.211356"
d="M -52,254 71,335 184,25 Z"/>
<path style="fill:rgb(0,214,54);fill-rule:evenodd;stroke:none;opacity:0.225241"
d="M -42,268 332,27 -21,-15 Z"/>
<path style="fill:rgb(83,41,221);fill-rule:evenodd;stroke:none;opacity:0.302867"
d="M -51,155 -34,237 86,328 Z"/>
<path style="fill:rgb(149,47,219);fill-rule:evenodd;stroke:none;opacity:0.690629"
d="M 70,-9 350,225 65,166 Z"/>
<path style="fill:rgb(151,202,0);fill-rule:evenodd;stroke:none;opacity:0.56977"
d="M 188,4 333,152 225,228 Z"/>
<path style="fill:rgb(197,212,237);fill-rule:evenodd;stroke:none;opacity:0.573642"
d="M 144,183 142,239 -27,212 Z"/>
<path style="fill:rgb(243,226,150);fill-rule:evenodd;stroke:none;opacity:0.983856"
d="M 263,69 359,49 240,178 Z"/>
<path style="fill:rgb(218,34,134);fill-rule:evenodd;stroke:none;opacity:0.0289428"
d="M 232,72 132,176 35,-36 Z"/>
<path style="fill:rgb(68,84,147);fill-rule:evenodd;stroke:none;opacity:0.435584"
d="M 180,164 56,-2 3,266 Z"/>
<path style="fill:rgb(3,89,126);fill-rule:evenodd;stroke:none;opacity:0.304615"
d="M 221,229 10,29 59,89 Z"/>
<path style="fill:rgb(151,205,141);fill-rule:evenodd;stroke:none;opacity:0.211812"
d="M 258,102 360,292 -27,63 Z"/>
<path style="fill:rgb(80,169,107);fill-rule:evenodd;stroke:none;opacity:0.312247"
d="M 274,-1 318,278 141,-40 Z"/>
<path style="fill:rgb(116,97,181);fill-rule:evenodd;stroke:none;opacity:0.154019"
d="M -32,351 328,173 320,-32 Z"/>
<path style="fill:rgb(246,0,99);fill-rule:evenodd;stroke:none;opacity:0.472786"
d="M 165,256 135,181 119,-21 Z"/>
<path style="fill:rgb(9,87,221);fill-rule:evenodd;stroke:none;opacity:0.941446"
d="M 320,187 272,168 67,155 Z"/>
<path style="fill:rgb(134,214,130);fill-rule:evenodd;stroke:none;opacity:0.74586"
d="M 93,153 289,88 -23,291 Z"/>
<path style="fill:rgb(144,120,122);fill-rule:evenodd;stroke:none;opacity:0.139956"
d="M 259,191 201,-60 189,277 Z"/>
<path style="fill:rgb(184,25,32);fill-rule:evenodd;stroke:none;opacity:0.336322"
d="M 358,80 -43,48 78,137 Z"/>
<path style="fill:rgb(223,88,205);fill-rule:evenodd;stroke:none;opacity:0.127999"
d="M 140,250 91,20 199,-46 Z"/>
<path style="fill:rgb(183,192,147);fill-rule:evenodd;stroke:none;opacity:0.591306"
d="M 208,43 221,337 311,-29 Z"/>
<path style="fill:rgb(81,175,72);fill-rule:evenodd;stroke:none;opacity:0.529201"
d="M 209,15 358,-60 -47,270 Z"/>
<path style="fill:rgb(255,171,42);fill-rule:evenodd;stroke:none;opacity:0.744463"
d="M 86,187 17,148 -15,346 Z"/>
<path style="fill:rgb(143,108,40);fill-rule:evenodd;stroke:none;opacity:0.295723"
d="M 217,-15 -57,21 189,0 Z"/>
<path style="fill:rgb(122,214,119);fill-rule:evenodd;stroke:none;opacity:0.0621671"
d="M 227,334 275,273 218,-12 Z"/>
<path style="fill:rgb(243,43,67);fill-rule:evenodd;stroke:none;opacity:0.0612259"
d="M 276,-31 99,-44 254,130 Z"/>
<path style="fill:rgb(111,68,131);fill-rule:evenodd;stroke:none;opacity:0.997424"
d="M 159,222 130,156 305,189 Z"/>
<path style="fill:rgb(34,20,21);fill-rule:evenodd;stroke:none;opacity:0.898967"
d="M -48,49 210,70 60,-60 Z"/>
<path style="fill:rgb(67,146,174);fill-rule:evenodd;stroke:none;opacity:0.175585"
d="M 183,106 284,163 360,164 Z"/>
<path style="fill:rgb(21,114,90);fill-rule:evenodd;stroke:none;opacity:0.20008"
d="M 305,49 -43,31 126,-47 Z"/>
<path style="fill:rgb(68,150,50);fill-rule:evenodd;stroke:none;opacity:0.328418"
d="M 44,35 198,-19 358,-60 Z"/>
<path style="fill:rgb(255,125,240);fill-rule:evenodd;stroke:none;opacity:0"
d="M 255,-39 179,263 97,225 Z"/>
<path style="fill:rgb(145,116,0);fill-rule:evenodd;stroke:none;opacity:0.685006"
d="M -22,-41 108,149 -21,-47 Z"/>
<path style="fill:rgb(73,55,68);fill-rule:evenodd;stroke:none;opacity:0.182461"
d="M 356,330 360,171 87,18 Z"/>
<path style="fill:rgb(227,160,40);fill-rule:evenodd;stroke:none;opacity:0.223807"
d="M 146,260 335,81 57,-48 Z"/>
<path style="fill:rgb(27,200,175);fill-rule:evenodd;stroke:none;opacity:0.00576611"
d="M 270,307 139,275 -3,209 Z"/>
<path style="fill:rgb(248,215,55);fill-rule:evenodd;stroke:none;opacity:0.984682"
d="M -47,119 115,307 276,245 Z"/>
<path style="fill:rgb(68,33,40);fill-rule:evenodd;stroke:none;opacity:0.257432"
d="M 66,324 276,288 20,187 Z"/>
<path style="fill:rgb(30,0,17);fill-rule:evenodd;stroke:none;opacity:0.846748"
d="M 39,118 320,177 187,274 Z"/>
<path style="fill:rgb(169,135,244);fill-rule:evenodd;stroke:none;opacity:0.17594"
d="M 135,42 132,154 89,127 Z"/>
<path style="fill:rgb(208,118,171);fill-rule:evenodd;stroke:none;opacity:0.356626"
d="M 26,-50 142,69 155,305 Z"/>
<path style="fill:rgb(41,12,123);fill-rule:evenodd;stroke:none;opacity:0.0175381"
d="M 128,163 48,279 251,-46 Z"/>
<path style="fill:rgb(232,74,128);fill-rule:evenodd;stroke:none;opacity:0.0614481"
d="M 304,-38 277,165 -25,-49 Z"/>
<path style="fill:rgb(39,160,149);fill-rule:evenodd;stroke:none;opacity:0.885254"
d="M 40,80 2,300 30,159 Z"/>
<path style="fill:rgb(67,109,96);fill-rule:evenodd;stroke:none;opacity:0.145772"
d="M 163,63 193,96 168,259 Z"/>
<path style="fill:rgb(143,113,117);fill-rule:evenodd;stroke:none;opacity:0.243513"
d="M 305,191 299,98 314,224 Z"/>
<path style="fill:rgb(58,190,118);fill-rule:evenodd;stroke:none;opacity:0.113793"
d="M 188,360 360,360 155,261 Z"/>
<path style="fill:rgb(177,226,67);fill-rule:evenodd;stroke:none;opacity:0.177865"
d="M 50,-52 328,273 18,128 Z"/>
<path style="fill:rgb(194,138,64);fill-rule:evenodd;stroke:none;opacity:1"
d="M -60,181 -37,333 29,227 Z"/>
<path style="fill:rgb(255,252,255);fill-rule:evenodd;stroke:none;opacity:0.607343"
d="M 101,24 113,360 190,237 Z"/>
<path style="fill:rgb(234,196,133);fill-rule:evenodd;stroke:none;opacity:0.0602751"
d="M 39,142 59,127 -42,-1 Z"/>
<path style="fill:rgb(0,91,0);fill-rule:evenodd;stroke:none;opacity:0.714951"
d="M 131,167 69,48 68,11 Z"/>
<path style="fill:rgb(223,208,146);fill-rule:evenodd;stroke:none;opacity:0.258255"
d="M 243,341 212,360 -23,197 Z"/>
<path style="fill:rgb(35,32,214);fill-rule:evenodd;stroke:none;opacity:0.125802"
d="M 37,76 256,72 48,287 Z"/>
<path style="fill:rgb(21,219,255);fill-rule:evenodd;stroke:none;opacity:0.234395"
d="M 74,-22 -1,253 56,31 Z"/>
<path style="fill:rgb(174,145,45);fill-rule:evenodd;stroke:none;opacity:0.735304"
d="M 59,161 313,261 139,171 Z"/>
<path style="fill:rgb(92,106,66);fill-rule:evenodd;stroke:none;opacity:0.0921539"
d="M -3,175 82,7 327,135 Z"/>
<path style="fill:rgb(1,139,97);fill-rule:evenodd;stroke:none;opacity:0.699499"
d="M 138,264 182,151 186,145 Z"/>
<path style="fill:rgb(253,158,0);fill-rule:evenodd;stroke:none;opacity:0.0512171"
d="M 135,299 -60,234 292,-59 Z"/>
<path style="fill:rgb(97,0,16);fill-rule:evenodd;stroke:none;opacity:0"
d="M 62,194 360,138 326,300 Z"/>
<path style="fill:rgb(161,112,9);fill-rule:evenodd;stroke:none;opacity:0.596251"
d="M 224,308 182,203 63,206 Z"/>
<path style="fill:rgb(43,60,48);fill-rule:evenodd;stroke:none;opacity:0.392125"
d="M 273,139 341,-54 181,-29 Z"/>
<path style="fill:rgb(90,238,110);fill-rule:evenodd;stroke:none;opacity:0.185754"
d="M 292,167 29,100 157,65 Z"/>
<path style="fill:rgb(157,70,235);fill-rule:evenodd;stroke:none;opacity:0"
d="M 342,272 154,83 236,-5 Z"/>
<path style="fill:rgb(114,101,87);fill-rule:evenodd;stroke:none;opacity:0.591368"
d="M 289,81 197,204 110,166 Z"/>
<path style="fill:rgb(0,0,10);fill-rule:evenodd;stroke:none;opacity:0.59407"
d="M 96,92 277,89 259,303 Z"/>
<path style="fill:rgb(238,163,218);fill-rule:evenodd;stroke:none;opacity:0.376899"
d="M -39,16 108,221 -3,136 Z"/>
<path style="fill:rgb(0,24,20);fill-rule:evenodd;stroke:none;opacity:0.272752"
d="M 120,-16 1,276 87,313 Z"/>
<path style="fill:rgb(40,166,17);fill-rule:evenodd;stroke:none;opacity:0.186595"
d="M 288,14 302,34 300,21 Z"/>
<path style="fill:rgb(255,210,143);fill-rule:evenodd;stroke:none;opacity:0.393893"
d="M 116,50 180,94 87,350 Z"/>
<path style="fill:rgb(113,39,0);fill-rule:evenodd;stroke:none;opacity:0.0562277"
d="M 343,295 -2,355 128,76 Z"/>
<path style="fill:rgb(120,78,3);fill-rule:evenodd;stroke:none;opacity:0.511665"
d="M 188,38 289,-40 341,87 Z"/>
<path style="fill:rgb(40,33,29);fill-rule:evenodd;stroke:none;opacity:1"
d="M 183,124 263,150 20,277 Z"/>
<path style="fill:rgb(21,41,228);fill-rule:evenodd;stroke:none;opacity:0.0713145"
d="M 240,51 118,162 185,76 Z"/>
<path style="fill:rgb(2,229,152);fill-rule:evenodd;stroke:none;opacity:0.148285"
d="M 358,360 360,349 360,-58 Z"/>
<path style="fill:rgb(53,20,123);fill-rule:evenodd;stroke:none;opacity:0.0152334"
d="M 360,336 229,212 235,217 Z"/>
<path style="fill:rgb(203,225,229);fill-rule:evenodd;stroke:none;opacity:0.32529"
d="M -29,13 157,151 -26,54 Z"/>
<path style="fill:rgb(255,239,135);fill-rule:evenodd;stroke:none;opacity:0.703408"
d="M 225,61 86,220 99,42 Z"/>
<path style="fill:rgb(147,71,131);fill-rule:evenodd;stroke:none;opacity:0.311689"
d="M 7,288 137,153 217,116 Z"/>
<path style="fill:rgb(247,102,101);fill-rule:evenodd;stroke:none;opacity:0.867332"
d="M -56,36 -3,261 28,133 Z"/>
<path style="fill:rgb(26,18,31);fill-rule:evenodd;stroke:none;opacity:0.630897"
d="M 333,301 270,256 47,314 Z"/>
<path style="fill:rgb(221,109,22);fill-rule:evenodd;stroke:none;opacity:0.0245905"
d="M 284,360 320,142 311,254 Z"/>
<path style="fill:rgb(20,30,79);fill-rule:evenodd;stroke:none;opacity:0.0803814"
d="M 241,260 112,303 268,309 Z"/>
<path style="fill:rgb(16,0,25);fill-rule:evenodd;stroke:none;opacity:0.598214"
d="M 252,-60 69,58 49,95 Z"/>
<path style="fill:rgb(0,88,18);fill-rule:evenodd;stroke:none;opacity:0.200111"
d="M -12,201 29,64 -3,297 Z"/>
<path style="fill:rgb(181,69,168);fill-rule:evenodd;stroke:none;opacity:0.341787"
d="M -48,-60 -12,235 101,80 Z"/>
<path style="fill:rgb(219,168,54);fill-rule:evenodd;stroke:none;opacity:0.339417"
d="M 96,124 201,278 58,348 Z"/>
<path style="fill:rgb(53,35,28);fill-rule:evenodd;stroke:none;opacity:0.856904"
d="M 239,223 95,-60 345,208 Z"/>
<path style="fill:rgb(255,170,55);fill-rule:evenodd;stroke:none;opacity:0.162489"
d="M -32,51 167,171 170,-41 Z"/>
<path style="fill:rgb(203,229,150);fill-rule:evenodd;stroke:none;opacity:0.495025"
d="M 177,277 80,288 125,137 Z"/>
<path style="fill:rgb(182,77,36);fill-rule:evenodd;stroke:none;opacity:0.286427"
d="M 296,128 273,58 286,178 Z"/>
<path style="fill:rgb(208,255,121);fill-rule:evenodd;stroke:none;opacity:0.398475"
d="M 232,198 360,51 205,26 Z"/>
<path style="fill:rgb(40,0,15);fill-rule:evenodd;stroke:none;opacity:0.59606"
d="M 25,352 134,184 82,45 Z"/>
<path style="fill:rgb(108,45,24);fill-rule:evenodd;stroke:none;opacity:0.402482"
d="M -17,114 211,86 -51,354 Z"/>
<path style="fill:rgb(0,127,87);fill-rule:evenodd;stroke:none;opacity:0.00620795"
d="M 241,285 86,195 -36,133 Z"/>
<path style="fill:rgb(233,168,76);fill-rule:evenodd;stroke:none;opacity:0.311809"
d="M 250,260 126,135 62,299 Z"/>
<path style="fill:rgb(185,197,119);fill-rule:evenodd;stroke:none;opacity:0.556182"
d="M 98,43 -15,-60 -52,291 Z"/>
<path style="fill:rgb(255,218,65);fill-rule:evenodd;stroke:none;opacity:0.202337"
d="M 59,-7 183,72 114,220 Z"/>
<path style="fill:rgb(101,112,118);fill-rule:evenodd;stroke:none;opacity:0.291632"
d="M 317,358 329,20 196,116 Z"/>
<path style="fill:rgb(7,66,69);fill-rule:evenodd;stroke:none;opacity:0.433451"
d="M 266,268 173,138 309,129 Z"/>
<path style="fill:rgb(246,175,15);fill-rule:evenodd;stroke:none;opacity:0.145144"
d="M 18,360 327,236 176,90 Z"/>
<path style="fill:rgb(255,118,15);fill-rule:evenodd;stroke:none;opacity:0.0265078"
d="M 206,94 261,313 266,-4 Z"/>
<path style="fill:rgb(90,0,0);fill-rule:evenodd;stroke:none;opacity:0.176678"
d="M 278,88 119,6 39,129 Z"/>
<path style="fill:rgb(10,0,0);fill-rule:evenodd;stroke:none;opacity:0.282224"
d="M 222,115 184,-27 125,102 Z"/>
<path style="fill:rgb(52,33,25);fill-rule:evenodd;stroke:none;opacity:0.813194"
d="M 84,177 209,171 42,242 Z"/>
<path style="fill:rgb(157,153,111);fill-rule:evenodd;stroke:none;opacity:0.871243"
d="M 195,-60 298,-29 -36,74 Z"/>
<path style="fill:rgb(130,138,89);fill-rule:evenodd;stroke:none;opacity:1"
d="M 24,80 78,203 -60,235 Z"/>
<path style="fill:rgb(216,196,152);fill-rule:evenodd;stroke:none;opacity:0.2934"
d="M 256,68 351,200 336,-3 Z"/>
<path style="fill:rgb(45,25,16);fill-rule:evenodd;stroke:none;opacity:0.492895"
d="M -12,246 214,315 34,296 Z"/>
<path style="fill:rgb(59,79,14);fill-rule:evenodd;stroke:none;opacity:0.210153"
d="M 144,-42 -54,36 288,62 Z"/>
<path style="fill:rgb(138,148,102);fill-rule:evenodd;stroke:none;opacity:0.689435"
d="M 338,163 360,-53 131,-8 Z"/>
<path style="fill:rgb(132,67,51);fill-rule:evenodd;stroke:none;opacity:0.913308"
d="M 128,122 140,154 105,171 Z"/>
<path style="fill:rgb(60,0,6);fill-rule:evenodd;stroke:none;opacity:0.32471"
d="M 233,209 80,212 199,80 Z"/>
<path style="fill:rgb(64,126,3);fill-rule:evenodd;stroke:none;opacity:0.232423"
d="M 83,200 67,122 -57,42 Z"/>
<path style="fill:rgb(28,57,244);fill-rule:evenodd;stroke:none;opacity:0"
d="M 252,280 113,318 212,206 Z"/>
<path style="fill:rgb(255,225,125);fill-rule:evenodd;stroke:none;opacity:0.27912"
d="M 128,285 87,59 170,276 Z"/>
<path style="fill:rgb(7,0,36);fill-rule:evenodd;stroke:none;opacity:0.25836"
d="M 172,22 178,180 324,155 Z"/>
<path style="fill:rgb(245,212,82);fill-rule:evenodd;stroke:none;opacity:0.136987"
d="M 360,359 246,219 305,-60 Z"/>
<path style="fill:rgb(249,196,28);fill-rule:evenodd;stroke:none;opacity:0.673627"
d="M 40,262 -11,316 -16,225 Z"/>
<path style="fill:rgb(65,82,47);fill-rule:evenodd;stroke:none;opacity:0.148889"
d="M 30,254 -34,68 129,357 Z"/>
<path style="fill:rgb(82,0,2);fill-rule:evenodd;stroke:none;opacity:0.169708"
d="M 157,228 130,77 107,223 Z"/>
<path style="fill:rgb(9,1,36);fill-rule:evenodd;stroke:none;opacity:0.358341"
d="M 183,334 187,24 290,293 Z"/>
<path style="fill:rgb(61,29,24);fill-rule:evenodd;stroke:none;opacity:0.122997"
d="M 114,349 334,307 264,167 Z"/>
<path style="fill:rgb(141,227,56);fill-rule:evenodd;stroke:none;opacity:0.0294065"
d="M 265,253 357,-21 194,108 Z"/>
<path style="fill:rgb(135,170,98);fill-rule:evenodd;stroke:none;opacity:0.345514"
d="M 71,128 87,-30 -60,44 Z"/>
<path style="fill:rgb(49,31,37);fill-rule:evenodd;stroke:none;opacity:0.505268"
d="M 137,188 -2,335 -36,66 Z"/>
<path style="fill:rgb(7,41,135);fill-rule:evenodd;stroke:none;opacity:0"
d="M 150,247 -8,169 -1,354 Z"/>
<path style="fill:rgb(255,251,76);fill-rule:evenodd;stroke:none;opacity:0.161672"
d="M 179,281 148,53 81,123 Z"/>
<path style="fill:rgb(6,0,2);fill-rule:evenodd;stroke:none;opacity:0.0664572"
d="M 293,72 -23,141 87,98 Z"/>
</svg>
